<svg width="49" height="49" viewBox="0 0 49 49" fill="none" xmlns="http://www.w3.org/2000/svg">
<path d="M24.5 47C36.9264 47 47 36.9264 47 24.5C47 12.0736 36.9264 2 24.5 2C12.0736 2 2 12.0736 2 24.5C2 36.9264 12.0736 47 24.5 47Z" stroke="#FFFFFF" stroke-width="3"/>
<path d="M11 36.5C11 35.672 11.672 35 12.5 35H36.5C37.328 35 38 35.672 38 36.5C38 37.328 37.328 38 36.5 38H12.5C11.672 38 11 37.328 11 36.5Z" fill="#FFFFFF"/>
<path fill-rule="evenodd" clip-rule="evenodd" d="M24.5 33.5C23.672 33.5 23 32.828 23 32V21.5C23 20.672 23.672 20 24.5 20C25.328 20 26 20.672 26 21.5V32C26 32.828 25.328 33.5 24.5 33.5Z" fill="#FFFFFF"/>
<path fill-rule="evenodd" clip-rule="evenodd" d="M32 33.5C31.172 33.5 30.5 32.828 30.5 32V21.5C30.5 20.672 31.172 20 32 20C32.828 20 33.5 20.672 33.5 21.5V32C33.5 32.828 32.828 33.5 32 33.5Z" fill="#FFFFFF"/>
<path fill-rule="evenodd" clip-rule="evenodd" d="M17 33.5C16.172 33.5 15.5 32.828 15.5 32V21.5C15.5 20.672 16.172 20 17 20C17.828 20 18.5 20.672 18.5 21.5V32C18.5 32.828 17.828 33.5 17 33.5Z" fill="#FFFFFF"/>
<path d="M24.5004 12.527C24.5619 12.548 24.6564 12.584 24.7914 12.644C25.1499 12.7985 25.5759 13.0205 26.1234 13.334C27.2364 13.97 28.6299 14.8685 30.1974 15.9755C33.3489 18.1985 33.5 18.5 36.9399 21.0605C37.5249 21.647 38.4759 21.647 39.0609 21.0605C39.6474 20.4755 39.6474 19.5245 39.0609 18.9395C35.75 16.25 35.1519 15.8015 31.9284 13.5245C30.3084 12.3815 28.7949 11.405 27.6114 10.7285C27.0099 10.385 26.4414 10.091 25.9959 9.896C25.6029 9.7235 25.0374 9.5 24.5004 9.5C23.9634 9.5 23.3979 9.7235 23.0049 9.896C22.5594 10.091 21.9909 10.385 21.3894 10.7285C20.2059 11.405 18.6924 12.3815 17.0724 13.5245C13.8489 15.8015 13.2508 16.25 9.93988 18.9395C9.35338 19.5245 9.35338 20.4755 9.93988 21.0605C10.5249 21.647 11.4759 21.647 12.0609 21.0605C15.5008 18.5 15.6519 18.1985 18.8034 15.9755C20.3709 14.8685 21.7644 13.97 22.8774 13.334C23.4249 13.0205 23.8509 12.7985 24.2094 12.644C24.3444 12.584 24.4389 12.548 24.5004 12.527Z" fill="#FFFFFF"/>
</svg>
