<svg width="1000" height="724" viewBox="0 0 1000 724" fill="none" xmlns="http://www.w3.org/2000/svg">
<g clip-path="url(#clip0)">
<path d="M202.67 480.31C180.97 480.31 159.89 469.69 139.77 448.57L140.77 447.62C166.65 474.8 194.1 484.36 222.35 476.02L222.74 477.33C216.228 479.285 209.469 480.289 202.67 480.31V480.31Z" fill="#EC6C45"/>
<path d="M222.17 475.76C174.97 462.17 149.37 406.48 140.55 383.16L141.82 382.68C150.57 405.8 176 461 222.55 474.45L222.17 475.76Z" fill="#EC6C45"/>
<path d="M157.61 478.76C151.535 478.766 145.476 478.142 139.53 476.9L139.81 475.56C165.42 480.93 193.18 474.49 222.36 456.45L223.08 457.61C200.31 471.68 178.37 478.76 157.61 478.76Z" fill="#EC6C45"/>
<path d="M105.23 462C94.7712 454.707 85.3662 446.009 77.28 436.15L78.28 435.27C86.3016 445.032 95.6292 453.643 106 460.86L105.23 462Z" fill="#EC6C45"/>
<path d="M138.49 368.88H134.39V361.81L127.72 358.32V344.39H131.05V343.32C129.93 342.18 127.65 340.32 125.36 340.32H123.54C121.25 340.32 118.96 342.15 117.84 343.32V344.39H121.18V358.32L114.5 361.81V368.88H110.41V359.33L117.08 355.84V348.49H113.74V341.79L114.21 341.22C114.38 341.02 118.36 336.22 123.54 336.22H125.36C130.53 336.22 134.52 340.99 134.69 341.22L135.15 341.79V348.49H131.82V355.84L138.49 359.33V368.88Z" fill="#EC6C45"/>
<path d="M127.51 340.35H121.38L122.4 320.46H126.49L127.51 340.35Z" fill="#EC6C45"/>
<path d="M76.33 368.88H72.23V361.81L65.56 358.32V344.39H68.9V343.32C67.78 342.18 65.49 340.32 63.2 340.32H61.38C59.09 340.32 56.81 342.15 55.68 343.32V344.39H59V358.32L52.33 361.81V368.88H48.23V359.33L54.9 355.84V348.49H51.59V341.79L52.05 341.22C52.22 341.02 56.2 336.22 61.38 336.22H63.2C68.38 336.22 72.36 340.99 72.53 341.22L72.99 341.79V348.49H69.66V355.84L76.33 359.33V368.88Z" fill="#EC6C45"/>
<path d="M65.36 340.35H59.23L60.24 320.46H64.34L65.36 340.35Z" fill="#EC6C45"/>
<path d="M144.36 492.13H140.26V483.42L137.63 479.36V434.84L136.41 430.1V386.93L140.26 377.41V370.93H42.19V377.41L46.04 386.93L45.97 430.64L44.83 434.84V479.36L42.19 483.42V492.13H38.09V482.2L40.73 478.15L40.8 434.03L41.95 429.83V387.73L38.09 378.2V366.83H144.36V378.2L140.51 387.73V429.83L141.72 434.56V478.15L144.36 482.2V492.13Z" fill="#EC6C45"/>
<path d="M105 492.13H100.9V482.2L103.54 478.15L103.61 434.03L104.76 429.83V409.83C104.757 406.49 103.429 403.288 101.066 400.927C98.7033 398.566 95.5 397.24 92.16 397.24H91.16C87.8373 397.258 84.6564 398.589 82.3097 400.941C79.963 403.293 78.6405 406.477 78.63 409.8V429.8L79.85 434.53V478.12L82.49 482.17V492.1H78.39V483.39L75.75 479.33V434.84L74.54 430.1V409.8C74.5426 405.376 76.3005 401.134 79.4277 398.005C82.555 394.876 86.7961 393.115 91.22 393.11H92.22C96.6456 393.113 100.889 394.872 104.019 398.001C107.148 401.131 108.907 405.374 108.91 409.8L108.84 430.64L107.7 434.84V479.36L105 483.42V492.13Z" fill="#EC6C45"/>
<path d="M373.8 139.3C372.4 127.01 366.22 108.59 344.73 90.6801C344.15 90.2065 343.424 89.9479 342.675 89.9479C341.926 89.9479 341.2 90.2065 340.62 90.6801C319.15 108.57 313 127 311.56 139.22L308.84 138.91C310.31 126.14 316.71 107.05 338.84 88.5801C339.913 87.7001 341.257 87.2192 342.645 87.2192C344.032 87.2192 345.377 87.7001 346.45 88.5801C368.64 107.08 375.03 126.2 376.45 138.99L373.8 139.3Z" fill="#EC6C45"/>
<path d="M371.53 139.55C367.26 125.69 358.24 112.95 344.73 101.68C344.152 101.201 343.425 100.939 342.675 100.939C341.925 100.939 341.198 101.201 340.62 101.68C327.1 112.95 318.09 125.68 313.82 139.55L311.21 138.74C315.63 124.37 324.94 111.2 338.87 99.5899C339.943 98.71 341.287 98.2291 342.675 98.2291C344.063 98.2291 345.407 98.71 346.48 99.5899C360.41 111.2 369.71 124.37 374.14 138.74L371.53 139.55Z" fill="#EC6C45"/>
<path d="M366.87 139.78C361.87 130.25 354.48 121.33 344.87 113.27C344.262 112.761 343.493 112.481 342.7 112.481C341.907 112.481 341.138 112.761 340.53 113.27C330.93 121.27 323.53 130.18 318.53 139.67L316.11 138.4C321.25 128.59 328.87 119.4 338.75 111.18C339.848 110.257 341.236 109.751 342.67 109.751C344.104 109.751 345.492 110.257 346.59 111.18C356.51 119.46 364.15 128.66 369.3 138.51L366.87 139.78Z" fill="#EC6C45"/>
<path d="M358.08 139.87C354.095 135.039 349.662 130.596 344.84 126.6C344.234 126.089 343.467 125.809 342.675 125.809C341.883 125.809 341.116 126.089 340.51 126.6C335.692 130.589 331.262 135.026 327.28 139.85L325.16 138.12C329.254 133.165 333.804 128.605 338.75 124.5C339.852 123.582 341.241 123.079 342.675 123.079C344.109 123.079 345.498 123.582 346.6 124.5C351.549 128.609 356.099 133.176 360.19 138.14L358.08 139.87Z" fill="#EC6C45"/>
<path d="M423.38 370.43H419.28V7.79H425.83V0H444.07V7.79H455.58V16.62H451.48V11.89H439.98V4.1H429.93V11.89H423.38V370.43Z" fill="#EC6C45"/>
<path d="M400.68 392.42H396.58V199.12H389.56V180.86H384.09V158.66H375.88V141.05H308.05V158.66H299.84V180.86H294.36V199.12H287.34V355.87H283.25V195.02H290.26V176.77H295.74V154.56H303.95V136.96H379.98V154.56H388.18V176.77H393.66V195.02H400.68V392.42Z" fill="#EC6C45"/>
<path d="M113.47 533V600.14H95V573.87H72.52V600.16H54.08V533H72.52V557.77H95V533H113.47Z" fill="#EC6C45"/>
<path d="M147.13 533H164L187.26 600.14H168.51L164.44 587H146.57L142.57 600.15H123.78L147.13 533ZM161.51 574.7L155.51 553.9L149.27 574.7H161.51Z" fill="#EC6C45"/>
<path d="M191.11 566C191.117 561.857 191.904 557.752 193.43 553.9C194.963 549.929 197.26 546.298 200.19 543.21C203.425 539.778 207.343 537.062 211.692 535.238C216.041 533.414 220.725 532.522 225.44 532.62C231.318 532.466 237.136 533.845 242.32 536.62C246.849 539.052 250.564 542.763 253 547.29L238.91 557.29C238.359 555.779 237.509 554.394 236.41 553.22C235.412 552.181 234.246 551.319 232.96 550.67C231.719 550.046 230.396 549.602 229.03 549.35C227.738 549.099 226.426 548.972 225.11 548.97C222.867 548.894 220.639 549.366 218.619 550.345C216.599 551.324 214.849 552.781 213.52 554.59C212.272 556.303 211.344 558.227 210.78 560.27C210.19 562.315 209.887 564.432 209.88 566.56C209.86 568.835 210.198 571.099 210.88 573.27C211.521 575.329 212.538 577.252 213.88 578.94C215.203 580.584 216.864 581.924 218.75 582.87C220.762 583.869 222.984 584.37 225.23 584.33C226.531 584.326 227.828 584.185 229.1 583.91C230.438 583.622 231.728 583.144 232.93 582.49C234.164 581.825 235.282 580.964 236.24 579.94C237.26 578.83 238.049 577.528 238.56 576.11L253.56 585.11C252.526 587.619 250.964 589.877 248.98 591.73C246.902 593.706 244.543 595.364 241.98 596.65C239.305 597.987 236.478 598.995 233.56 599.65C230.695 600.319 227.762 600.654 224.82 600.65C220.095 600.702 215.419 599.676 211.15 597.65C207.112 595.738 203.484 593.058 200.47 589.76C197.468 586.504 195.095 582.72 193.47 578.6C191.898 574.586 191.097 570.311 191.11 566Z" fill="#EC6C45"/>
<path d="M264.87 600.16V533H283.31V558.53L303.73 533H324.54L300.14 563.07L326.24 600.14H305.06L288.41 575.46L283.31 580.75V600.14L264.87 600.16Z" fill="#EC6C45"/>
<path d="M356 566C356.03 557.529 359.271 549.385 365.07 543.21C368.137 539.986 371.797 537.385 375.85 535.55C380.402 533.531 385.341 532.531 390.32 532.62C396.199 532.464 402.016 533.843 407.2 536.62C411.71 539.046 415.41 542.742 417.84 547.25L403.75 557.25C403.199 555.739 402.349 554.354 401.25 553.18C400.251 552.139 399.08 551.276 397.79 550.63C396.553 550.007 395.233 549.562 393.87 549.31C392.593 549.086 391.297 548.982 390 549C387.757 548.924 385.529 549.396 383.509 550.375C381.489 551.354 379.739 552.811 378.41 554.62C377.162 556.333 376.234 558.257 375.67 560.3C375.08 562.345 374.777 564.462 374.77 566.59C374.75 568.865 375.088 571.129 375.77 573.3C376.407 575.361 377.424 577.284 378.77 578.97C380.093 580.614 381.754 581.954 383.64 582.9C385.652 583.9 387.874 584.4 390.12 584.36C391.421 584.355 392.718 584.214 393.99 583.94C395.328 583.651 396.617 583.173 397.82 582.52C399.054 581.855 400.172 580.994 401.13 579.97C402.15 578.86 402.939 577.558 403.45 576.14L418.45 585.14C417.412 587.648 415.85 589.904 413.87 591.76C411.792 593.736 409.433 595.394 406.87 596.68C404.194 598.016 401.367 599.023 398.45 599.68C395.585 600.348 392.652 600.684 389.71 600.68C384.984 600.733 380.309 599.707 376.04 597.68C372.002 595.768 368.374 593.088 365.36 589.79C362.358 586.534 359.985 582.75 358.36 578.63C356.788 574.605 355.988 570.321 356 566V566Z" fill="#EC6C45"/>
<path d="M429.79 600.16V533H448.23V600.14L429.79 600.16Z" fill="#EC6C45"/>
<path d="M482.93 567.15V600.15H464.49V533H478.86L505.86 567.13V533H524.3V600.14H509.6L482.93 567.15Z" fill="#EC6C45"/>
<path d="M536.83 566C536.842 561.857 537.629 557.753 539.15 553.9C540.687 549.931 542.983 546.3 545.91 543.21C548.977 539.986 552.637 537.385 556.69 535.55C561.678 533.455 567.061 532.47 572.467 532.661C577.873 532.853 583.173 534.217 588 536.66C592.51 539.086 596.21 542.782 598.64 547.29L584.55 557.29C583.995 555.779 583.141 554.395 582.04 553.22C581.042 552.181 579.876 551.319 578.59 550.67C577.352 550.048 576.032 549.604 574.67 549.35C573.375 549.1 572.059 548.972 570.74 548.97C568.498 548.894 566.272 549.367 564.254 550.346C562.236 551.325 560.488 552.782 559.16 554.59C557.908 556.301 556.98 558.226 556.42 560.27C555.83 562.315 555.527 564.432 555.52 566.56C555.495 568.836 555.833 571.101 556.52 573.27C557.157 575.331 558.175 577.254 559.52 578.94C560.842 580.581 562.499 581.921 564.38 582.87C566.393 583.867 568.614 584.368 570.86 584.33C572.164 584.326 573.465 584.185 574.74 583.91C576.078 583.621 577.367 583.143 578.57 582.49C579.843 581.855 581.002 581.013 582 580C583.02 578.892 583.806 577.589 584.31 576.17L599.31 585.17C598.268 587.675 596.707 589.932 594.73 591.79C592.648 593.762 590.29 595.419 587.73 596.71C585.054 598.044 582.227 599.051 579.31 599.71C576.441 600.379 573.505 600.714 570.56 600.71C565.838 600.764 561.165 599.737 556.9 597.71C552.86 595.796 549.23 593.116 546.21 589.82C543.211 586.561 540.838 582.778 539.21 578.66C537.624 574.628 536.816 570.333 536.83 566Z" fill="#EC6C45"/>
<path d="M610.6 600.16V533H629V600.14L610.6 600.16Z" fill="#EC6C45"/>
<path d="M663.74 567.15V600.15H645.3V533H659.67L686.67 567.13V533H705.11V600.14H690.41L663.74 567.15Z" fill="#EC6C45"/>
<path d="M739.77 567.15V600.15H721.33V533H735.7L762.7 567.13V533H781.1V600.14H766.44L739.77 567.15Z" fill="#EC6C45"/>
<path d="M814.76 533H831.59L854.85 600.14H836.13L832.06 587H814.19L810.19 600.15H791.4L814.76 533ZM829.13 574.7L823.13 553.9L816.89 574.7H829.13Z" fill="#EC6C45"/>
<path d="M911.31 549.09H892V600.16H873.58V549.09H854.2V533H911.31V549.09Z" fill="#EC6C45"/>
<path d="M922.75 600.16V533H941.19V600.14L922.75 600.16Z" fill="#EC6C45"/>
<path d="M573.44 432.18H556.37V218.61L557.48 217.31H552.88V182.3L554.01 181.55L548.52 177.56L550.06 174.27L534.61 143.53V140.37H530.26V120.7H526.82V140.37H522.47V143.53L507.02 174.27L508.56 177.56L503.07 181.55L504.19 182.3V217.31H499.6L500.71 218.61V412.94H484.4V408.84H496.61V220.12L490.75 213.21H500.1V184.5L495.87 181.71L503.41 176.24L502.46 174.21L518.37 142.56V136.27H522.72V116.61H534.35V136.27H538.7V142.56L554.61 174.21L553.66 176.24L561.21 181.71L556.98 184.5V213.21H566.32L560.47 220.12V428.08H569.34V209.45H642.27V218.84H649.8V229.67H657.31V239.84H665.27V248.24H671.68V258.85H678.53V269.01H683.33V273.11H674.43V262.94H667.58V252.34H661.17V243.94H653.22V233.77H645.7V222.93H638.18V213.54H573.44V432.18Z" fill="#EC6C45"/>
<path d="M467.31 389.98H463.21V50.2999H458.66V31.6699H456.28V18.6699H439.48V33.6199H431.78V50.2999H421.33V46.1999H427.69V29.5199H435.38V14.5699H460.38V27.5699H462.76V46.1999H467.31V389.98Z" fill="#EC6C45"/>
<path d="M642.76 230.16H579V231.53H642.76V230.16Z" fill="#EC6C45"/>
<path d="M635.04 219.83H579V221.2H635.04V219.83Z" fill="#EC6C45"/>
<path d="M645.95 240.49H579V241.86H645.95V240.49Z" fill="#EC6C45"/>
<path d="M653.92 250.82H579V252.19H653.92V250.82Z" fill="#EC6C45"/>
<path d="M658.71 261.15H579V262.52H658.71V261.15Z" fill="#EC6C45"/>
<path d="M665.08 271.49H579V272.86H665.08V271.49Z" fill="#EC6C45"/>
<path d="M673.84 281.82H579V283.19H673.84V281.82Z" fill="#EC6C45"/>
<path d="M665.08 292.15H579V293.52H665.08V292.15Z" fill="#EC6C45"/>
<path d="M660.18 302.48H579V303.85H660.18V302.48Z" fill="#EC6C45"/>
<path d="M649.41 312.81H579V314.18H649.41V312.81Z" fill="#EC6C45"/>
<path d="M649.41 323.14H579V324.51H649.41V323.14Z" fill="#EC6C45"/>
<path d="M649.41 333.47H579V334.84H649.41V333.47Z" fill="#EC6C45"/>
<path d="M649.41 343.81H579V345.18H649.41V343.81Z" fill="#EC6C45"/>
<path d="M649.41 354.14H579V355.51H649.41V354.14Z" fill="#EC6C45"/>
<path d="M639.49 364.47H579V365.84H639.49V364.47Z" fill="#EC6C45"/>
<path d="M639.49 374.8H579V376.17H639.49V374.8Z" fill="#EC6C45"/>
<path d="M639.49 385.13H579V386.5H639.49V385.13Z" fill="#EC6C45"/>
<path d="M639.49 395.46H579V396.83H639.49V395.46Z" fill="#EC6C45"/>
<path d="M639.49 405.79H579V407.16H639.49V405.79Z" fill="#EC6C45"/>
<path d="M639.49 416.12H579V417.49H639.49V416.12Z" fill="#EC6C45"/>
<path d="M639.49 426.46H579V427.83H639.49V426.46Z" fill="#EC6C45"/>
<path d="M641.54 444.12H637.44V364.17H641.05V351.41H647.37V309.04H658.13V296.7L680.55 269.25H702.8L725.22 296.7V309.04H736.72V352.42H742.18V364.17H746.07V352.42H750.98V309.04H762.47V296.7L784.89 269.25H807.14L829.56 296.7V309.04H840.32V351.41H846.64V364.17H850.25V377.61H846.15V368.27H842.54V355.51H836.23V313.13H825.46V298.16L805.2 273.34H786.83L766.57 298.16V313.13H755.07V356.52H750.17V368.27H738.09V356.52H732.62V313.13H721.12V298.16L700.86 273.34H682.49L662.23 298.16V313.13H651.47V355.51H645.15V368.27H641.54V444.12Z" fill="#EC6C45"/>
<path d="M662.14 318.49H660.77V355.77H662.14V318.49Z" fill="#EC6C45"/>
<path d="M677.15 318.49H675.78V355.77H677.15V318.49Z" fill="#EC6C45"/>
<path d="M692.15 318.49H690.78V355.77H692.15V318.49Z" fill="#EC6C45"/>
<path d="M707.16 318.49H705.79V355.77H707.16V318.49Z" fill="#EC6C45"/>
<path d="M722.16 318.49H720.79V355.77H722.16V318.49Z" fill="#EC6C45"/>
<path d="M766.81 318.49H765.44V355.77H766.81V318.49Z" fill="#EC6C45"/>
<path d="M781.82 318.49H780.45V355.77H781.82V318.49Z" fill="#EC6C45"/>
<path d="M796.83 318.49H795.46V355.77H796.83V318.49Z" fill="#EC6C45"/>
<path d="M811.83 318.49H810.46V355.77H811.83V318.49Z" fill="#EC6C45"/>
<path d="M826.84 318.49H825.47V355.77H826.84V318.49Z" fill="#EC6C45"/>
<path d="M618.2 46.61C619.46 44.49 620.72 45.36 622.05 46.43C623.588 47.5995 624.714 49.2276 625.266 51.0791C625.818 52.9305 625.767 54.9095 625.12 56.73C624.969 57.1144 624.91 57.5285 624.946 57.9397C624.983 58.3509 625.114 58.7481 625.33 59.1C626.214 60.717 626.503 62.5923 626.149 64.4006C625.795 66.2089 624.819 67.8361 623.39 69C622.709 69.8262 622.218 70.7916 621.95 71.8282C621.682 72.8647 621.645 73.9474 621.84 75C623.699 79.6787 623.896 84.8532 622.4 89.66C622.07 90.71 622.4 91.13 623.26 91.36C624.47 91.66 625.51 92.88 626.97 92.16C626.72 91.53 626.17 91.52 625.75 91.31C624.09 90.44 623.5 89.11 624.12 87.57C624.235 87.2063 624.422 86.8696 624.67 86.58C624.918 86.2905 625.222 86.0541 625.564 85.885C625.906 85.716 626.279 85.6178 626.659 85.5963C627.04 85.5748 627.421 85.6305 627.78 85.76C629.78 86.4 630.72 87.76 630.06 89.42C629.53 90.81 630.06 91.24 631.19 91.61C631.81 91.81 632.7 91.88 632.19 93.05C631.68 94.22 630.96 93.5 630.44 93.23C630.252 93.0929 630.039 92.9944 629.812 92.9403C629.586 92.8861 629.351 92.8774 629.122 92.9146C628.892 92.9518 628.672 93.0342 628.474 93.157C628.276 93.2798 628.105 93.4406 627.97 93.63C626.89 94.79 625.53 94.32 624.24 93.78C621.51 92.63 621.48 92.63 619.89 95.03C618.249 97.5289 616.132 99.6798 613.66 101.36C611.187 103.04 608.408 104.215 605.48 104.82C604.21 105.12 603.71 105.45 603.87 106.92C604.27 110.45 602.03 112.6 598.48 112.27C596.61 112.09 594.75 111.75 592.88 111.54C592 111.45 591.64 111.07 591.57 110.16C591.45 108.59 591.14 107.03 591 105.46C591.004 105.129 590.893 104.807 590.684 104.549C590.476 104.292 590.185 104.115 589.86 104.05C589.14 103.81 588.81 104.05 588.35 104.61C587.803 105.231 587.105 105.701 586.324 105.974C585.543 106.247 584.705 106.315 583.89 106.17C582.02 105.98 580.16 105.65 578.29 105.44C578.109 105.449 577.928 105.418 577.761 105.349C577.593 105.28 577.443 105.175 577.32 105.042C577.198 104.908 577.107 104.749 577.053 104.575C576.999 104.402 576.985 104.22 577.01 104.04C577.01 103.31 576.82 102.59 576.75 101.87C576.29 97.64 575.97 93.4 573.1 89.87C572.584 89.1398 572.211 88.3187 572 87.45C571.12 84.32 570.25 81.34 567.55 79.02C565.76 77.48 565.9 74.9 566.77 72.67C567.77 70 568.98 67.38 570.04 64.67C570.075 64.5076 570.144 64.3544 570.242 64.2204C570.34 64.0864 570.466 63.9747 570.61 63.8926C570.755 63.8105 570.915 63.7598 571.08 63.7438C571.246 63.7279 571.413 63.747 571.57 63.8C571.81 63.86 572.08 63.8 572.3 63.86C575.74 65.09 577.97 62.96 580.3 61.04C580.85 60.58 580.74 60.04 580.7 59.56C580.6 58.35 580.42 57.14 580.38 55.93C580.27 53.05 582.24 51.67 584.92 52.72C586.78 53.5171 588.475 54.653 589.92 56.07C590.224 56.3999 590.605 56.65 591.029 56.7982C591.453 56.9464 591.906 56.9882 592.35 56.92C594.463 56.668 596.602 56.7219 598.7 57.08C599.102 57.1785 599.524 57.1551 599.912 57.0126C600.3 56.8701 600.637 56.615 600.88 56.28C604.67 51.93 608.56 47.67 612.34 43.28C613.09 42.42 613.64 42.28 614.61 42.87C616.062 43.8434 617.287 45.1192 618.2 46.61V46.61ZM583.68 55.88C583.83 57.76 583.93 59.45 584.13 61.12C584.242 61.5107 584.208 61.9286 584.035 62.2963C583.862 62.6641 583.562 62.9567 583.19 63.12C581.408 64.0561 579.817 65.3179 578.5 66.84C578.305 67.1095 578.042 67.3233 577.739 67.4601C577.435 67.5969 577.101 67.652 576.77 67.62C575.4 67.51 573.77 66.78 572.71 67.5C571.65 68.22 571.46 70.06 570.82 71.37C570.74 71.53 570.68 71.71 570.61 71.88C568.89 75.97 568.96 76.38 572.32 79.17C572.791 79.501 573.184 79.9296 573.474 80.4266C573.764 80.9237 573.944 81.4774 574 82.05C574.14 84.6916 575.04 87.2367 576.59 89.38C579 92.38 579.37 95.73 579.74 99.23C579.83 100.02 579.94 100.8 580.06 101.58C580.11 101.93 580.06 102.39 580.59 102.42C582.21 102.51 583.88 103.42 585.42 102.7C586.73 102.13 585.85 100.59 586.17 99.54C586.225 99.4076 586.292 99.2805 586.37 99.16C587.26 99.53 588.14 99.94 589.04 100.27C590.63 100.86 592.81 100.96 593.68 102.09C594.55 103.22 594.3 105.46 594.57 107.2C594.66 107.81 594.47 108.63 595.57 108.57C597.19 108.48 598.87 109.76 600.44 108.47C600.8 108.17 600.69 107.56 600.63 107.07C600.5 106.07 600.44 105.13 600.24 104.18C599.98 102.92 600.16 102.37 601.71 102.18C610 101.13 616.36 97.26 619.16 89.02C621.49 82.13 619.62 75.93 615.36 70.14C614.589 71.4013 613.428 72.3766 612.053 72.9181C610.678 73.4595 609.164 73.5374 607.74 73.14C604.89 72.56 601.99 72.14 599.11 71.72L588.72 70L597.26 60.3C595.152 60.0667 593.021 60.1307 590.93 60.49C590.528 60.5918 590.104 60.5709 589.714 60.4301C589.324 60.2893 588.985 60.0351 588.74 59.7C587.344 58.0821 585.619 56.7799 583.68 55.88V55.88ZM595.13 67.69C600.27 68.5 604.99 69.31 609.73 69.96C611.61 70.22 612.94 68.55 612.6 66.46C612.43 65.46 612.52 65.01 613.54 64.54C616.98 62.93 617.6 59.38 614.97 56.61C614.28 55.88 614.11 55.45 614.79 54.52C615.536 53.5054 615.938 52.2792 615.938 51.02C615.938 49.7609 615.536 48.5346 614.79 47.52C614.28 46.84 613.94 46.52 613.15 47.39C607.27 54.09 601.32 60.73 595.13 67.69V67.69ZM618.65 69C618.65 68 619.14 67.66 619.93 67.28C623.37 65.63 624.05 62.09 621.4 59.37C620.56 58.5 620.68 58.03 621.29 57.12C621.992 56.146 622.37 54.9757 622.37 53.775C622.37 52.5743 621.992 51.404 621.29 50.43C621.05 50.05 620.85 49.43 620.29 49.55C620.021 49.6275 619.781 49.7844 619.603 50.0003C619.424 50.2163 619.315 50.4811 619.29 50.76C619.222 51.7739 619.054 52.7787 618.79 53.76C618.593 54.2242 618.51 54.7289 618.548 55.2318C618.586 55.7347 618.745 56.2211 619.01 56.65C619.766 58.0257 620.065 59.6061 619.863 61.1628C619.662 62.7195 618.971 64.1719 617.89 65.31C616.89 66.44 616.8 67.1 617.89 68.03C618.172 68.3301 618.426 68.6547 618.65 69ZM627 89.9C627.43 90.21 627.9 90.24 628.18 89.39C628.46 88.54 628.36 88.02 627.48 87.67C627.339 87.5811 627.18 87.5253 627.014 87.5069C626.849 87.4885 626.681 87.508 626.524 87.5638C626.367 87.6197 626.225 87.7105 626.108 87.8293C625.991 87.9482 625.903 88.0921 625.85 88.25C625.45 89.2 626.15 89.52 627 89.9Z" fill="#EC6C45"/>
<path d="M585.52 68.1199C585.43 68.358 585.29 68.574 585.109 68.7532C584.928 68.9324 584.711 69.0708 584.472 69.159C584.233 69.2471 583.978 69.283 583.724 69.2642C583.47 69.2454 583.223 69.1723 583 69.0499C582.767 68.9707 582.553 68.8414 582.375 68.671C582.197 68.5007 582.059 68.2934 581.969 68.0638C581.879 67.8342 581.841 67.5877 581.857 67.3418C581.873 67.0958 581.942 66.8563 582.06 66.6399C582.132 66.388 582.261 66.1559 582.436 65.9616C582.612 65.7673 582.83 65.616 583.074 65.5194C583.317 65.4227 583.58 65.3834 583.841 65.4043C584.102 65.4252 584.355 65.5058 584.58 65.6399C584.817 65.7259 585.032 65.862 585.211 66.0388C585.39 66.2156 585.529 66.429 585.619 66.6644C585.708 66.8999 585.745 67.1518 585.728 67.403C585.711 67.6541 585.64 67.8987 585.52 68.1199V68.1199Z" fill="#EC6C45"/>
<path d="M721.13 111C720.582 111.732 720.185 112.564 719.96 113.45C719.41 114.92 718.47 117.34 717.12 120.69H717.18C718.52 120.673 719.857 120.556 721.18 120.34C721.457 120.34 721.735 120.323 722.01 120.29C722.17 118.4 722.28 117.29 722.33 117.07C722.38 116.85 722.54 116.07 722.73 115.24L723.05 113.84L723.41 109.79H722.66C722.07 109.72 721.55 110.13 721.13 111Z" fill="#EC6C45"/>
<path d="M819.53 115.31C819.08 114.47 818.62 114.04 818.14 114.04C817.716 114.028 817.294 114.103 816.9 114.26L816.34 114.56C816.149 114.697 815.966 114.844 815.79 115L817.53 118.3H817.58C819.15 117.3 819.83 116.6 819.58 116.22C819.69 116.16 819.7 115.94 819.58 115.57L819.53 115.31Z" fill="#EC6C45"/>
<path d="M816.43 107.66L814.95 104.86C814.377 103.85 813.558 103.001 812.57 102.39C811.62 102.325 810.665 102.444 809.76 102.74L808.92 103.18C810.767 106.047 812.527 109.073 814.2 112.26H814.26C814.882 111.903 815.397 111.385 815.75 110.76C816.249 110.289 816.55 109.645 816.59 108.96C816.491 108.533 816.437 108.098 816.43 107.66V107.66Z" fill="#EC6C45"/>
<path d="M827.48 97.11L835.33 82.46C814.5 96.74 781.47 109.67 751.7 100.15C702.42 84.38 690.21 93.38 690.21 93.38L681.46 115.71L674.94 132.71C695.39 121.92 749.18 162.97 800.41 135.95C843.16 113.4 846.83 103.95 846.83 103.95C839.91 107.39 827.48 97.11 827.48 97.11ZM708.61 119.5L708.5 119.87C708.36 120.29 708.16 121.09 707.86 122.25L707.27 124.19C707.037 124.96 706.876 125.75 706.79 126.55C706.72 126.79 706.27 126.8 705.45 126.61C704.965 126.552 704.486 126.448 704.02 126.3C703.69 126.2 703.61 125.86 703.78 125.3C703.826 125.161 703.88 125.024 703.94 124.89C704.05 124.39 704.37 123.28 704.94 121.55C705.14 120.91 705.32 120.23 705.47 119.55C704.149 119.32 702.811 119.2 701.47 119.19L699.56 118.94C699.41 119.71 698.99 121.24 698.28 123.53C698.061 124.157 697.765 124.755 697.4 125.31C697.314 125.329 697.226 125.329 697.14 125.31C695.53 124.81 694.78 124.41 694.88 124.08C695.03 123.639 695.147 123.188 695.23 122.73L696.23 119.85L696.56 118.36L697 117C698.65 111.93 699.56 109.14 699.71 108.63C700.643 105.61 701.25 103.57 701.53 102.51C701.64 102.14 702.53 102.21 704.05 102.69C704.46 102.81 704.62 103.02 704.53 103.3C704.44 103.58 704.34 103.84 704.3 103.82V104.15L702.61 109.65C701.943 111.71 701.277 113.77 700.61 115.83C701.835 116.057 703.075 116.198 704.32 116.25C705.59 116.42 706.32 116.53 706.47 116.58C706.804 115.782 707.098 114.968 707.35 114.14L708.9 109.14C709.18 107.933 709.4 107.073 709.56 106.56C709.622 105.927 709.725 105.299 709.87 104.68C710 104.27 710.87 104.31 712.35 104.78C712.84 104.93 712.96 105.4 712.71 106.21L711.93 109.61L710.24 115.11C709.81 116.14 709.3 117.61 708.61 119.5ZM726.15 113.86C726.15 114.24 725.82 115.68 725.29 118.18L724.78 124.01C724.71 124.76 724.63 125.47 724.53 126.15C724.323 127.473 724.212 128.81 724.2 130.15C724.2 130.87 724.2 131.44 724.14 131.89C724.07 132.18 723.14 132.19 721.21 131.89C720.96 131.83 720.94 130.81 721.15 128.82C721.26 127.9 721.35 127.11 721.39 126.45C721.39 126.28 721.5 125.72 721.66 124.79L721.79 123.39C721.55 123.39 720.26 123.53 717.94 123.85L717.18 123.77C717.09 123.77 716.69 123.77 715.97 123.77L715.5 125.69C715.14 126.88 714.91 127.69 714.8 128.19C714.8 128.24 714.8 128.44 714.73 128.81L714.68 129.28C714.593 129.7 713.853 129.75 712.46 129.43C711.95 129.32 711.65 129.15 711.54 128.91V128.78C712.08 126.78 712.61 124.78 713.13 122.78C714.23 119.78 714.79 118.23 714.85 118.05C715.511 116.681 716.075 115.267 716.54 113.82C716.858 113.237 717.087 112.61 717.22 111.96C717.502 111.434 717.74 110.886 717.93 110.32C718.07 110.26 718.23 109.97 718.44 109.47L719.02 108.69C719.76 107.58 720.33 107.03 720.75 107.06C721.917 106.576 723.213 106.499 724.43 106.84C724.913 106.93 725.359 107.158 725.714 107.498C726.069 107.837 726.318 108.272 726.43 108.75C726.53 109.169 726.557 109.602 726.51 110.03L726.15 113.86ZM741.82 117.67C741.76 118.01 741.58 118.14 741.29 118.1L739.34 117.81C739.03 117.81 738.88 117.48 738.89 116.96C738.93 116.335 739.01 115.714 739.13 115.1C739.097 114.719 738.926 114.364 738.65 114.1L737.31 113.57L736.81 113.5C735.63 113.74 735.01 114.05 734.94 114.43C734.597 114.904 734.327 115.426 734.14 115.98C733.693 116.691 733.4 117.488 733.28 118.32C732.94 120.547 732.587 122.827 732.22 125.16C732.192 126.009 732.263 126.858 732.43 127.69C732.475 128.301 732.555 128.908 732.67 129.51C732.92 130.17 733.28 130.51 733.76 130.62C734.058 130.747 734.345 130.898 734.62 131.07L735.87 131.27C736.47 131.09 736.803 130.78 736.87 130.34C736.941 130.177 736.991 130.006 737.02 129.83L737.2 128.66L737.43 127.46C737.405 127.294 737.405 127.126 737.43 126.96C737.469 126.834 737.556 126.727 737.671 126.662C737.786 126.597 737.922 126.579 738.05 126.61L739.89 126.88C740.33 126.953 740.52 127.193 740.46 127.6L740.21 128.97L740 130.6C739.83 131.394 739.489 132.141 739 132.79C738.26 133.556 737.292 134.061 736.24 134.23C736.24 134.31 736.07 134.33 735.78 134.29L733.65 133.97C731.81 133.18 730.83 132.57 730.72 132.13C730.306 131.674 729.986 131.14 729.779 130.56C729.571 129.98 729.48 129.365 729.51 128.75C729.203 127.809 729.108 126.812 729.23 125.83C729.1 125.83 729.16 125.03 729.38 123.5L730.32 117.5C730.609 116.18 731.098 114.912 731.77 113.74C731.965 113.492 732.095 113.2 732.15 112.89C732.638 112.293 733.191 111.753 733.8 111.28L735.24 110.72C735.702 110.556 736.19 110.475 736.68 110.48C737.086 110.495 737.49 110.539 737.89 110.61C739.093 110.877 740.21 111.441 741.14 112.25C741.718 113.052 742.083 113.988 742.2 114.97L741.82 117.67ZM757.48 114.06C757.142 115.127 756.707 116.162 756.18 117.15C755.967 118.005 755.63 118.823 755.18 119.58C754.782 120.505 754.338 121.409 753.85 122.29C753.456 122.875 753.121 123.498 752.85 124.15L751.45 126.86C751.92 127.74 752.58 128.86 753.45 130.26C753.656 130.828 753.896 131.382 754.17 131.92C754.503 132.587 754.837 133.317 755.17 134.11C755.603 135.139 755.981 136.19 756.3 137.26C756.25 137.61 755.57 137.94 754.21 138.26H753.9C753.62 138.26 753.09 137.26 752.33 135.26C751.624 133.304 750.691 131.438 749.55 129.7C749.208 129.122 748.827 128.567 748.41 128.04H748.34L748.2 129.23C748.247 129.528 748.277 129.829 748.29 130.13L747.99 132.77C748.034 133.51 748.014 134.253 747.93 134.99C747.84 135.19 747.62 135.27 747.26 135.23L745.26 135C744.92 135 744.8 134.55 744.89 133.75C744.898 133.597 744.898 133.443 744.89 133.29C744.89 133.04 744.99 132.08 745.19 130.42C745.13 129.77 745.11 129.42 745.11 129.42L746.5 116.21C746.464 114.961 746.525 113.71 746.68 112.47C746.721 112.346 746.805 112.24 746.917 112.173C747.029 112.105 747.161 112.079 747.29 112.1L749.11 112.31C749.57 112.31 749.78 112.55 749.75 112.89C749.698 113.268 749.675 113.649 749.68 114.03C749.608 114.251 749.562 114.479 749.54 114.71C749.507 115.263 749.507 115.817 749.54 116.37C749.17 119.9 748.83 123.11 748.54 125.99H748.6C748.707 125.589 748.902 125.217 749.17 124.9C750.26 122.75 750.81 121.64 750.82 121.59C751.238 121.041 751.575 120.435 751.82 119.79C752.615 118.307 753.303 116.77 753.88 115.19C753.97 115.19 754.14 114.65 754.38 113.53C754.61 113.05 754.87 112.82 755.17 112.85C756.85 113.34 757.68 113.68 757.66 113.91L757.48 114.06ZM781 132.76C780.556 133.73 779.813 134.532 778.88 135.05C778.88 135.13 778.76 135.2 778.47 135.26L776.36 135.68C774.36 135.55 773.23 135.3 772.98 134.92C771.888 134.329 771.07 133.335 770.7 132.15C770.103 131.361 769.681 130.454 769.46 129.49C769.34 129.49 769.13 128.74 768.83 127.24L767.67 121.24C767.512 119.908 767.549 118.561 767.78 117.24C767.88 116.944 767.904 116.628 767.85 116.32C768.104 115.591 768.44 114.894 768.85 114.24L770.03 113.24C770.403 112.92 770.834 112.676 771.3 112.52C771.687 112.403 772.081 112.31 772.48 112.24C773.703 112.082 774.946 112.24 776.09 112.7C777.28 113.7 777.92 114.45 778 114.9L778.55 117.63C778.61 117.96 778.49 118.15 778.2 118.2L776.26 118.59C775.95 118.65 775.72 118.43 775.56 117.94C775.387 117.339 775.25 116.728 775.15 116.11C775.15 115.86 774.83 115.59 774.35 115.3L772.92 115.25L772.42 115.35C771.42 115.97 770.92 116.47 770.98 116.86C770.812 117.418 770.731 117.998 770.74 118.58C770.569 119.404 770.569 120.255 770.74 121.08C771.17 123.29 771.61 125.55 772.05 127.88C772.279 128.688 772.615 129.461 773.05 130.18C773.293 130.743 773.57 131.291 773.88 131.82C774.03 132.051 774.241 132.237 774.49 132.357C774.739 132.477 775.015 132.526 775.29 132.5C775.627 132.511 775.963 132.557 776.29 132.64L777.53 132.4C777.749 132.286 777.929 132.108 778.047 131.891C778.164 131.673 778.214 131.426 778.19 131.18C778.205 131.007 778.205 130.833 778.19 130.66L777.97 129.49L777.77 128.29C777.698 128.134 777.647 127.969 777.62 127.8C777.621 127.67 777.67 127.545 777.756 127.447C777.842 127.35 777.961 127.287 778.09 127.27L779.92 126.9C780.004 126.871 780.093 126.861 780.18 126.871C780.268 126.881 780.353 126.911 780.428 126.958C780.503 127.005 780.566 127.068 780.613 127.143C780.66 127.218 780.69 127.302 780.7 127.39L780.92 128.76L781.23 130.43C781.32 131.214 781.242 132.009 781 132.76V132.76ZM793.71 130.82C793.71 130.82 793.52 130.93 793.11 131.04C790.4 131.82 789.04 132.18 789.02 132.14L788.91 132.23L788.37 132.39C788.04 132.49 787.77 132.14 787.55 131.39C787.55 131.22 787.12 130.17 786.4 128.24C785.681 125.481 784.782 122.772 783.71 120.13L783.03 117.75C783.03 117.59 782.81 117.1 782.48 116.26C781.57 113.18 781.03 111.38 780.89 110.87C780.81 110.57 781.1 110.31 781.79 110.09C783.08 109.72 783.79 109.66 783.79 109.9C783.98 110.59 784.12 111.14 784.19 111.56C784.54 112.64 784.88 113.74 785.19 114.89C785.338 115.377 785.515 115.854 785.72 116.32L786.72 119.72C786.83 119.72 787.07 120.22 787.43 121.3C788.094 123.079 788.651 124.895 789.1 126.74L789.73 128.74C789.737 128.79 789.755 128.837 789.783 128.878C789.811 128.92 789.848 128.955 789.892 128.98C789.935 129.005 789.984 129.019 790.034 129.023C790.083 129.027 790.134 129.019 790.18 129L792.18 128.2C792.73 127.92 793.37 127.63 794.11 127.33C794.47 127.23 794.74 127.46 794.9 128.03C795.17 128.83 795.36 129.43 795.47 129.84C795.51 130.053 794.913 130.38 793.68 130.82H793.71ZM806.09 126.75L804.18 127.58C803.307 127.85 802.39 127.949 801.48 127.87C800.849 127.753 800.256 127.485 799.75 127.09C798.852 126.399 798.118 125.518 797.6 124.51L795.67 120.19C795.35 119.06 795.15 118.4 795.08 118.19C794.578 116.923 794.141 115.631 793.77 114.32L791.85 109.91C791.843 109.898 791.839 109.884 791.839 109.87C791.839 109.856 791.843 109.842 791.85 109.83L791.75 109.75L791.39 108.9C791.23 108.49 791.52 108.12 792.27 107.79C792.635 107.541 793.032 107.343 793.45 107.2C793.81 107.06 794.05 107.12 794.16 107.36C794.27 107.6 794.32 107.74 794.33 107.76C794.39 107.94 794.55 108.39 794.79 109.1C795.87 111.62 796.537 113.17 796.79 113.75C796.99 114.27 797.2 114.88 797.43 115.6C797.66 116.32 797.86 116.91 798.04 117.39C798.264 117.967 798.438 118.563 798.56 119.17L800.37 123.17C801.16 124.17 801.68 124.73 801.93 124.69C801.98 124.82 802.44 124.77 803.32 124.56L804.48 124.06C804.706 123.646 804.826 123.182 804.83 122.71C804.897 121.923 804.791 121.132 804.52 120.39L803.42 117.95C803.25 117.425 803.11 116.891 803 116.35C802.956 116.169 802.899 115.992 802.83 115.82C802.75 115.61 802.25 114.49 801.35 112.48C800.71 110.48 800.3 109.22 800.12 108.75C799.4 107.05 798.9 105.96 798.63 105.46C798.5 105.13 799.09 104.64 800.39 103.99H800.54C800.99 103.81 801.29 103.87 801.42 104.16L802.55 106.73C802.74 107.27 803.01 108.01 803.36 108.94C803.71 109.87 803.97 110.69 804.16 111.39C804.98 113.21 805.46 114.3 805.6 114.66C805.905 115.45 806.149 116.263 806.33 117.09L807.51 119.69C807.639 120.217 807.736 120.751 807.8 121.29C807.83 124.41 807.26 126.23 806.06 126.75H806.09ZM822.3 117.94C821.532 119.264 820.367 120.313 818.97 120.94L817.97 121.44C816.85 122.02 816.25 122.25 816.17 122.1L815.97 121.85L812.82 115.85C812.3 115.05 812 114.58 811.94 114.45C809.899 110.526 807.649 106.714 805.2 103.03C805.135 102.869 805.106 102.696 805.116 102.523C805.127 102.35 805.176 102.182 805.26 102.03C805.32 101.824 805.419 101.63 805.55 101.46L808.1 100.13C809.712 99.3538 811.526 99.0987 813.29 99.4C814.224 99.7337 815.076 100.262 815.79 100.95C816.668 101.939 817.424 103.03 818.04 104.2L818.62 105.31C819.192 106.459 819.532 107.709 819.62 108.99C819.539 109.675 819.371 110.347 819.12 110.99C820.108 111.308 820.967 111.936 821.57 112.78C821.95 113.377 822.284 114.002 822.57 114.65C822.846 115.749 822.74 116.909 822.27 117.94H822.3Z" fill="#EC6C45"/>
<path d="M677.49 114C653.34 114 632.21 94.9399 631.26 94.0699L633.1 92.0699C633.34 92.2899 657.54 114.07 682.61 110.98L682.95 113.69C681.138 113.907 679.315 114.01 677.49 114V114Z" fill="#EC6C45"/>
<path d="M909.15 496.14H905.05V414.67H896.44V409.29H890.34V402.62H885.07L884.49 401.53C878.3 390 857 378 832.05 378H829.05C804.11 378 782.8 390 776.61 401.54L776.03 402.63H770.76V409.3H764.66V414.68H756V467.23H751.91V410.57H760.51V405.19H766.61V398.52H773.61C781 386.23 803.3 373.9 829 373.9H832C857.73 373.9 880 386.23 887.44 398.52H894.44V405.19H900.54V410.57H909.15V496.14Z" fill="#EC6C45"/>
<path d="M887.78 447.25H883.69C883.69 433.154 878.09 419.635 868.123 409.667C858.155 399.7 844.636 394.1 830.54 394.1C816.444 394.1 802.925 399.7 792.957 409.667C782.99 419.635 777.39 433.154 777.39 447.25H773.29C773.19 439.669 774.596 432.143 777.428 425.11C780.26 418.077 784.461 411.676 789.786 406.28C795.112 400.883 801.457 396.599 808.452 393.674C815.447 390.749 822.953 389.243 830.535 389.243C838.117 389.243 845.623 390.749 852.618 393.674C859.613 396.599 865.958 400.883 871.284 406.28C876.609 411.676 880.81 418.077 883.642 425.11C886.474 432.143 887.88 439.669 887.78 447.25V447.25Z" fill="#EC6C45"/>
<path d="M885.15 440.55H774.95V444.65H885.15V440.55Z" fill="#EC6C45"/>
<path d="M814.88 394.26H813.51V442.6H814.88V394.26Z" fill="#EC6C45"/>
<path d="M825.53 419.65H824.16V442.6H825.53V419.65Z" fill="#EC6C45"/>
<path d="M825.53 392.05H824.16V402.63H825.53V392.05Z" fill="#EC6C45"/>
<path d="M836.18 419.65H834.81V442.6H836.18V419.65Z" fill="#EC6C45"/>
<path d="M836.18 392.05H834.81V402.15H836.18V392.05Z" fill="#EC6C45"/>
<path d="M846.83 394.26H845.46V442.6H846.83V394.26Z" fill="#EC6C45"/>
<path d="M857.48 399H856.11V442.6H857.48V399Z" fill="#EC6C45"/>
<path d="M868.13 406.73H866.76V442.59H868.13V406.73Z" fill="#EC6C45"/>
<path d="M804.23 398.77H802.86V442.6H804.23V398.77Z" fill="#EC6C45"/>
<path d="M793.58 406.35H792.21V442.6H793.58V406.35Z" fill="#EC6C45"/>
<path d="M511.39 184.23H510.02V214.58H511.39V184.23Z" fill="#EC6C45"/>
<path d="M520.62 184.23H519.25V214.58H520.62V184.23Z" fill="#EC6C45"/>
<path d="M529.85 184.23H528.48V214.58H529.85V184.23Z" fill="#EC6C45"/>
<path d="M539.08 184.23H537.71V214.58H539.08V184.23Z" fill="#EC6C45"/>
<path d="M305.55 166.3H304.18V368.3H305.55V166.3Z" fill="#EC6C45"/>
<path d="M316.04 148.33H314.67V368.05H316.04V148.33Z" fill="#EC6C45"/>
<path d="M326.52 148.33H325.15V455.49H326.52V148.33Z" fill="#EC6C45"/>
<path d="M337 148.33H335.63V455.49H337V148.33Z" fill="#EC6C45"/>
<path d="M347.49 148.33H346.12V455.49H347.49V148.33Z" fill="#EC6C45"/>
<path d="M357.97 148.33H356.6V455.49H357.97V148.33Z" fill="#EC6C45"/>
<path d="M368.46 148.33H367.09V455.49H368.46V148.33Z" fill="#EC6C45"/>
<path d="M378.94 166.3H377.57V455.08H378.94V166.3Z" fill="#EC6C45"/>
<path d="M389.42 208.56H388.05V368.88H389.42V208.56Z" fill="#EC6C45"/>
<path d="M295.07 208.56H293.7V361.64H295.07V208.56Z" fill="#EC6C45"/>
<path d="M548.31 184.23H546.94V214.58H548.31V184.23Z" fill="#EC6C45"/>
<path d="M830.54 422.73C828.167 422.73 825.847 422.026 823.873 420.708C821.9 419.389 820.362 417.515 819.453 415.322C818.545 413.129 818.308 410.717 818.771 408.389C819.234 406.061 820.377 403.923 822.055 402.245C823.733 400.566 825.871 399.424 828.199 398.961C830.527 398.498 832.939 398.735 835.132 399.643C837.325 400.552 839.199 402.09 840.518 404.063C841.836 406.037 842.54 408.357 842.54 410.73C842.54 413.913 841.276 416.965 839.025 419.215C836.775 421.466 833.723 422.73 830.54 422.73ZM830.54 402.87C828.979 402.868 827.452 403.329 826.153 404.196C824.854 405.062 823.841 406.294 823.242 407.736C822.644 409.178 822.487 410.765 822.791 412.297C823.095 413.828 823.847 415.235 824.951 416.339C826.055 417.443 827.462 418.195 828.993 418.499C830.525 418.803 832.112 418.646 833.554 418.047C834.996 417.449 836.228 416.436 837.094 415.137C837.961 413.838 838.422 412.311 838.42 410.75C838.415 408.662 837.583 406.66 836.106 405.184C834.629 403.707 832.628 402.875 830.54 402.87V402.87Z" fill="#EC6C45"/>
<path d="M223.14 497.72H219.05V272.26L221.58 229.88L225.66 229.8L229.32 267.57H235.92L242.4 233.16L246.1 267.57H253.31L257.63 229.77L261.72 229.93C261.72 230.5 263.53 286.55 263.53 299.12C263.53 310.35 263.61 354.93 263.63 365.04H279.37V349H288.6V365H289C289.82 359.74 291.43 357.08 293.8 357.08C296.97 357.08 299.24 361.3 299.89 365H317.78V348.2H327.5V453.07H381.72V408.25L389.72 344.18L394.5 393.59L427.2 361.91V348.79H439.25V361.91L471.95 393.59L476.73 344.19L484.73 407.99V455.82H480.63V408.25L477.26 381.33L475.26 402.45L435.2 363.64V352.89H431.34V363.64L391.34 402.45L389.34 381.37L385.95 408.5V457.17H323.4V352.33H321.87V369.13H296V367.13C295.947 365.151 295.299 363.235 294.14 361.63C293.47 363.475 293.03 365.397 292.83 367.35L292.63 369.17H284.5V353.17H283.5V369.17H259.54V367.17C259.54 367.17 259.43 311.89 259.43 299.17C259.43 292.69 258.95 274.52 258.48 258.44L257 271.67H242.42L241.29 261.18L239.29 271.67H225.6L224.11 256.23L223.11 272.38L223.14 497.72Z" fill="#EC6C45"/>
<path d="M240.87 317.39C238.497 317.39 236.177 316.686 234.203 315.368C232.23 314.049 230.692 312.175 229.783 309.982C228.875 307.79 228.638 305.377 229.101 303.049C229.564 300.721 230.706 298.583 232.385 296.905C234.063 295.227 236.201 294.084 238.529 293.621C240.857 293.158 243.269 293.395 245.462 294.303C247.655 295.212 249.529 296.75 250.848 298.723C252.166 300.697 252.87 303.017 252.87 305.39C252.87 308.573 251.606 311.625 249.355 313.875C247.105 316.126 244.053 317.39 240.87 317.39V317.39ZM240.87 297.53C239.311 297.53 237.788 297.992 236.492 298.858C235.196 299.724 234.186 300.955 233.59 302.394C232.993 303.834 232.837 305.419 233.141 306.947C233.445 308.476 234.196 309.88 235.298 310.982C236.4 312.084 237.804 312.835 239.333 313.139C240.861 313.443 242.446 313.287 243.886 312.69C245.325 312.094 246.556 311.084 247.422 309.788C248.288 308.492 248.75 306.969 248.75 305.41C248.747 303.321 247.916 301.318 246.439 299.841C244.962 298.364 242.959 297.533 240.87 297.53V297.53Z" fill="#EC6C45"/>
<path d="M459.5 412.94H407V410.89C407.134 404.01 409.961 397.457 414.874 392.639C419.787 387.821 426.394 385.123 433.275 385.123C440.156 385.123 446.763 387.821 451.676 392.639C456.589 397.457 459.416 404.01 459.55 410.89L459.5 412.94ZM411.14 408.84H455.31C454.799 403.336 452.251 398.221 448.166 394.498C444.081 390.775 438.753 388.711 433.225 388.711C427.698 388.711 422.369 390.775 418.284 394.498C414.199 398.221 411.651 403.336 411.14 408.84Z" fill="#EC6C45"/>
<path d="M8.29 535.13C8.30059 526.169 11.865 517.578 18.2015 511.241C24.5379 504.905 33.1289 501.341 42.09 501.33L449.33 501.73V493.44L42.1 493C30.9324 493.011 20.2258 497.454 12.3319 505.353C4.43806 513.253 0.00264508 523.962 0 535.13L0 681C0.00278013 671.992 2.90994 663.225 8.29 656V535.13Z" fill="#EC6C45"/>
<path d="M202.9 723.06H42.1C30.9446 723.05 20.2484 718.616 12.3566 710.732C4.46476 702.847 0.0211682 692.156 -4.65056e-06 681C-0.0275904 680.439 0.0591767 679.877 0.255032 679.351C0.450888 678.824 0.751749 678.342 1.13936 677.935C1.52697 677.528 1.99326 677.204 2.50992 676.982C3.02659 676.761 3.58286 676.646 4.145 676.646C4.70713 676.646 5.2634 676.761 5.78007 676.982C6.29673 677.204 6.76302 677.528 7.15063 677.935C7.53824 678.342 7.8391 678.824 8.03496 679.351C8.23081 679.877 8.31758 680.439 8.29 681C8.30059 689.963 11.8664 698.555 18.205 704.892C24.5436 711.229 33.1372 714.792 42.1 714.8H202.9C203.964 714.852 204.967 715.312 205.702 716.084C206.437 716.855 206.846 717.88 206.846 718.945C206.846 720.011 206.437 721.035 205.702 721.807C204.967 722.578 203.964 723.038 202.9 723.09V723.06Z" fill="#EC6C45"/>
<path d="M956.16 499.65C955.751 499.649 955.351 499.527 955.011 499.3C954.671 499.072 954.406 498.748 954.25 498.37L922.62 422.92C922.514 422.669 922.459 422.4 922.457 422.128C922.456 421.856 922.508 421.586 922.61 421.334C922.713 421.081 922.864 420.852 923.055 420.658C923.247 420.465 923.474 420.311 923.725 420.205C923.976 420.099 924.245 420.044 924.517 420.042C924.789 420.041 925.059 420.093 925.311 420.195C925.563 420.298 925.793 420.449 925.987 420.64C926.18 420.832 926.334 421.059 926.44 421.31L958.07 496.77C958.177 497.021 958.232 497.29 958.234 497.562C958.236 497.835 958.184 498.105 958.08 498.357C957.977 498.609 957.825 498.838 957.633 499.03C957.44 499.223 957.212 499.376 956.96 499.48C956.709 499.594 956.436 499.652 956.16 499.65V499.65Z" fill="#EC6C45"/>
<path d="M976.47 495.06C976.062 495.06 975.663 494.94 975.323 494.714C974.983 494.488 974.718 494.166 974.56 493.79L944.85 422.92C944.744 422.669 944.689 422.4 944.687 422.128C944.686 421.856 944.738 421.586 944.84 421.334C944.943 421.081 945.094 420.852 945.285 420.658C945.477 420.465 945.704 420.311 945.955 420.205C946.206 420.099 946.475 420.044 946.747 420.042C947.019 420.041 947.289 420.093 947.541 420.195C947.793 420.298 948.023 420.449 948.217 420.64C948.41 420.832 948.564 421.059 948.67 421.31L978.38 492.19C978.485 492.441 978.54 492.71 978.541 492.982C978.542 493.254 978.49 493.523 978.387 493.775C978.283 494.027 978.132 494.256 977.94 494.449C977.749 494.642 977.521 494.795 977.27 494.9C977.017 495.008 976.745 495.062 976.47 495.06Z" fill="#EC6C45"/>
<path d="M992.25 478.32C991.842 478.32 991.443 478.2 991.103 477.974C990.763 477.748 990.498 477.426 990.34 477.05L968.53 425.05C968.349 424.548 968.367 423.996 968.581 423.508C968.795 423.019 969.188 422.632 969.68 422.425C970.172 422.218 970.724 422.208 971.223 422.397C971.721 422.586 972.129 422.959 972.36 423.44L994.16 475.44C994.373 475.948 994.375 476.52 994.167 477.029C993.959 477.539 993.557 477.946 993.05 478.16C992.797 478.268 992.525 478.322 992.25 478.32Z" fill="#EC6C45"/>
<path d="M933.9 499.65C933.491 499.648 933.092 499.526 932.752 499.298C932.412 499.07 932.147 498.747 931.99 498.37L906.55 437.67C906.444 437.419 906.389 437.15 906.387 436.878C906.386 436.606 906.438 436.336 906.54 436.084C906.643 435.831 906.794 435.602 906.985 435.408C907.177 435.215 907.404 435.061 907.655 434.955C907.906 434.849 908.175 434.794 908.447 434.792C908.719 434.791 908.989 434.843 909.241 434.945C909.493 435.048 909.723 435.199 909.917 435.39C910.11 435.582 910.264 435.809 910.37 436.06L935.82 496.77C935.925 497.021 935.98 497.29 935.981 497.562C935.982 497.834 935.93 498.103 935.827 498.355C935.723 498.607 935.572 498.836 935.38 499.029C935.189 499.222 934.961 499.375 934.71 499.48C934.455 499.595 934.179 499.653 933.9 499.65V499.65Z" fill="#EC6C45"/>
<path d="M68.3 720.54C67.8905 720.541 67.4899 720.421 67.1483 720.195C66.8067 719.969 66.5395 719.647 66.38 719.27L34.94 644.27C34.7278 643.763 34.7256 643.193 34.9338 642.685C35.1419 642.177 35.5434 641.772 36.05 641.56C36.5566 641.348 37.1267 641.346 37.6349 641.554C38.1431 641.762 38.5478 642.163 38.76 642.67L70.21 717.67C70.3419 717.985 70.3939 718.327 70.3615 718.667C70.329 719.006 70.2132 719.333 70.0241 719.617C69.8351 719.901 69.5788 720.134 69.278 720.295C68.9772 720.456 68.6412 720.54 68.3 720.54Z" fill="#EC6C45"/>
<path d="M90.53 720.54C90.1216 720.541 89.722 720.421 89.3819 720.195C89.0418 719.969 88.7766 719.647 88.62 719.27L57 643.82C56.8185 643.318 56.8367 642.766 57.0507 642.278C57.2647 641.789 57.6582 641.401 58.1499 641.195C58.6416 640.988 59.1939 640.978 59.6927 641.167C60.1915 641.356 60.5986 641.729 60.83 642.21L92.46 717.67C92.5919 717.985 92.6439 718.327 92.6115 718.667C92.579 719.006 92.4631 719.333 92.2741 719.617C92.0851 719.901 91.8287 720.134 91.5279 720.295C91.2271 720.456 90.8912 720.54 90.55 720.54H90.53Z" fill="#EC6C45"/>
<path d="M113.32 720.54C112.912 720.541 112.512 720.422 112.172 720.195C111.832 719.969 111.567 719.647 111.41 719.27L79.78 643.82C79.57 643.312 79.5687 642.741 79.7765 642.232C79.9843 641.723 80.3844 641.316 80.89 641.1C81.1408 640.995 81.4099 640.94 81.6819 640.939C81.9538 640.938 82.2234 640.99 82.475 641.093C82.7267 641.196 82.9556 641.348 83.1486 641.54C83.3417 641.731 83.4951 641.959 83.6 642.21L115.24 717.67C115.45 718.177 115.451 718.746 115.243 719.253C115.035 719.761 114.635 720.166 114.13 720.38C113.873 720.486 113.598 720.54 113.32 720.54V720.54Z" fill="#EC6C45"/>
<path d="M46 720.54C45.5916 720.542 45.1919 720.422 44.8519 720.196C44.5118 719.969 44.2466 719.647 44.09 719.27L16.09 652.42C15.8778 651.914 15.8755 651.343 16.0837 650.835C16.2919 650.327 16.6934 649.922 17.2 649.71C17.7065 649.498 18.2766 649.496 18.7849 649.704C19.2931 649.912 19.6978 650.314 19.91 650.82L47.91 717.67C48.0151 717.921 48.0698 718.19 48.071 718.462C48.0721 718.734 48.0196 719.003 47.9165 719.255C47.8134 719.507 47.6618 719.736 47.4702 719.929C47.2786 720.122 47.0509 720.275 46.8 720.38C46.5471 720.488 46.2748 720.542 46 720.54V720.54Z" fill="#EC6C45"/>
<path d="M158.63 720.54C158.222 720.541 157.822 720.421 157.482 720.195C157.142 719.969 156.877 719.647 156.72 719.27L125.08 643.82C124.899 643.318 124.917 642.766 125.131 642.278C125.345 641.789 125.738 641.401 126.23 641.195C126.722 640.988 127.274 640.978 127.773 641.167C128.271 641.356 128.679 641.729 128.91 642.21L160.54 717.67C160.672 717.985 160.724 718.327 160.691 718.667C160.659 719.006 160.543 719.333 160.354 719.617C160.165 719.901 159.909 720.134 159.608 720.295C159.307 720.456 158.971 720.54 158.63 720.54Z" fill="#EC6C45"/>
<path d="M180.86 720.54C180.452 720.541 180.052 720.421 179.712 720.195C179.372 719.969 179.107 719.647 178.95 719.27L147.31 643.82C147.129 643.318 147.147 642.766 147.361 642.278C147.575 641.789 147.968 641.401 148.46 641.195C148.952 640.988 149.504 640.978 150.003 641.167C150.501 641.356 150.909 641.729 151.14 642.21L182.77 717.67C182.902 717.985 182.954 718.327 182.921 718.667C182.889 719.006 182.773 719.333 182.584 719.617C182.395 719.901 182.139 720.134 181.838 720.295C181.537 720.456 181.201 720.54 180.86 720.54V720.54Z" fill="#EC6C45"/>
<path d="M203.65 720.54C203.242 720.541 202.842 720.422 202.502 720.195C202.162 719.969 201.897 719.647 201.74 719.27L170.11 643.82C169.9 643.312 169.899 642.741 170.106 642.232C170.314 641.723 170.714 641.316 171.22 641.1C171.471 640.995 171.74 640.94 172.012 640.939C172.284 640.938 172.553 640.99 172.805 641.093C173.057 641.196 173.286 641.348 173.479 641.54C173.672 641.731 173.825 641.959 173.93 642.21L205.57 717.67C205.78 718.177 205.781 718.746 205.573 719.253C205.365 719.761 204.965 720.166 204.46 720.38C204.203 720.486 203.928 720.54 203.65 720.54V720.54Z" fill="#EC6C45"/>
<path d="M136.37 720.54C135.962 720.542 135.562 720.422 135.222 720.196C134.882 719.969 134.617 719.647 134.46 719.27L102.83 643.82C102.617 643.314 102.613 642.743 102.82 642.234C103.027 641.725 103.428 641.319 103.935 641.105C104.442 640.892 105.012 640.888 105.521 641.095C106.031 641.303 106.437 641.704 106.65 642.21L138.28 717.67C138.385 717.921 138.44 718.19 138.441 718.462C138.442 718.734 138.39 719.003 138.287 719.255C138.183 719.507 138.032 719.736 137.84 719.929C137.649 720.122 137.421 720.275 137.17 720.38C136.917 720.488 136.645 720.542 136.37 720.54V720.54Z" fill="#EC6C45"/>
<path d="M42.1 638.87C35.5162 638.876 29.0258 640.429 23.1528 643.404C17.2798 646.38 12.1885 650.695 8.28998 656V681C8.29262 672.031 11.8546 663.43 18.1938 657.085C24.533 650.74 33.1311 647.171 42.1 647.16H449.33V638.87H42.1Z" fill="#EC6C45"/>
<path d="M995.85 455.92C996.951 455.92 998.006 456.357 998.784 457.135C999.563 457.914 1000 458.969 1000 460.07C999.979 448.914 995.536 438.221 987.644 430.335C979.752 422.449 969.056 418.013 957.9 418H911.66C910.596 418.052 909.593 418.512 908.858 419.283C908.123 420.055 907.714 421.08 907.714 422.145C907.714 423.21 908.123 424.235 908.858 425.007C909.593 425.778 910.596 426.238 911.66 426.29H957.9C966.864 426.301 975.457 429.866 981.796 436.204C988.134 442.543 991.699 451.136 991.71 460.1C991.705 459.553 991.808 459.01 992.014 458.503C992.219 457.997 992.523 457.535 992.908 457.147C993.293 456.758 993.751 456.449 994.256 456.239C994.761 456.028 995.303 455.92 995.85 455.92V455.92Z" fill="#EC6C45"/>
<path d="M957.9 502.16C964.482 502.157 970.971 500.607 976.844 497.635C982.717 494.663 987.809 490.352 991.71 485.05V460.05C991.699 469.011 988.135 477.602 981.799 483.939C975.462 490.275 966.871 493.839 957.91 493.85L520.34 493.42V501.71L957.9 502.16Z" fill="#EC6C45"/>
<path d="M0 681C0.0522823 682.064 0.511806 683.067 1.28342 683.802C2.05502 684.537 3.07961 684.946 4.145 684.946C5.21039 684.946 6.23498 684.537 7.00658 683.802C7.77819 683.067 8.23772 682.064 8.29 681V656C2.90994 663.225 0.00278013 671.992 0 681H0Z" fill="#EC6C45"/>
<path d="M520.35 493.44H449.33V501.73H520.35V493.44Z" fill="#EC6C45"/>
<path d="M520.35 638.87H449.33V647.16H520.35V638.87Z" fill="#EC6C45"/>
<path d="M1000 459.21L999 456.21L993.43 455.13L991.73 458.4C991.947 460.907 991.779 463.433 991.23 465.89C990.32 469.77 991.73 485.1 991.73 485.1V605.1C991.719 614.064 988.154 622.657 981.816 628.995C975.477 635.334 966.884 638.899 957.92 638.91H520.34V647.2H957.9C969.062 647.187 979.762 642.747 987.655 634.854C995.547 626.962 999.987 616.261 1000 605.1V460.1V459.21Z" fill="#EC6C45"/>
</g>
<defs>
<clipPath id="clip0">
<rect width="1000" height="723.06" fill="white"/>
</clipPath>
</defs>
</svg>
