<svg width="648" height="648" viewBox="0 0 648 648" fill="none" xmlns="http://www.w3.org/2000/svg">
<path d="M487.226 59.2332C498.076 41.0076 508.925 48.487 520.378 57.6858C533.62 67.7399 543.317 81.7367 548.07 97.6539C552.821 113.57 552.382 130.583 546.815 146.235C545.518 149.54 545.005 153.099 545.319 156.635C545.633 160.17 546.764 163.584 548.623 166.61C556.232 180.511 558.726 196.634 555.675 212.18C552.624 227.725 544.219 241.714 531.917 251.721C526.054 258.824 521.821 267.122 519.516 276.035C517.21 284.946 516.887 294.254 518.57 303.303C534.574 343.526 536.276 388.011 523.392 429.335C520.55 438.362 523.392 441.973 530.797 443.95C541.218 446.529 550.172 457.018 562.745 450.828C560.592 445.412 555.856 445.326 552.239 443.52C537.945 436.041 532.864 424.607 538.204 411.368C539.192 408.241 540.803 405.346 542.94 402.856C545.077 400.368 547.696 398.335 550.64 396.882C553.584 395.429 556.791 394.583 560.07 394.399C563.348 394.215 566.632 394.694 569.72 395.807C586.942 401.309 595.036 413.001 589.353 427.272C584.789 439.222 589.353 442.919 599.083 446.1C604.423 447.819 612.087 448.421 607.695 458.479C603.303 468.538 597.103 462.347 592.625 460.027C591.007 458.848 589.17 458.001 587.221 457.536C585.272 457.071 583.249 456.995 581.272 457.315C579.294 457.635 577.4 458.344 575.697 459.399C573.995 460.455 572.519 461.837 571.356 463.466C562.056 473.439 550.345 469.398 539.237 464.755C515.728 454.868 515.471 454.868 501.779 475.502C487.652 496.985 469.421 515.476 448.128 529.918C426.837 544.359 402.902 554.468 377.692 559.666C366.757 562.246 362.451 565.083 363.829 577.72C367.273 608.067 347.984 626.551 317.415 623.714C301.312 622.167 285.296 619.243 269.194 617.439C261.615 616.665 258.516 613.398 257.912 605.575C256.879 592.077 254.21 578.666 253.004 565.168C253.04 562.322 252.078 559.554 250.286 557.339C248.493 555.126 245.983 553.607 243.188 553.047C236.988 550.983 234.146 553.047 230.185 557.861C225.475 563.2 219.467 567.239 212.741 569.587C206.015 571.936 198.796 572.516 191.779 571.272C175.677 569.638 159.66 566.801 143.557 564.997C141.998 565.076 140.442 564.809 138.998 564.217C137.554 563.624 136.26 562.721 135.206 561.571C134.153 560.421 133.368 559.053 132.906 557.564C132.444 556.076 132.318 554.503 132.535 552.961C132.535 546.685 130.899 540.495 130.296 534.306C126.335 497.94 123.58 461.489 98.8658 431.14C94.4246 424.864 91.211 417.805 89.3937 410.335C81.8161 383.428 74.3243 357.809 51.0744 337.862C35.6605 324.624 36.8664 302.443 44.358 283.272C52.9691 260.317 63.3881 237.794 72.5159 214.496C72.817 213.099 73.4103 211.782 74.2566 210.63C75.1029 209.479 76.1831 208.519 77.4268 207.812C78.6705 207.107 80.0497 206.671 81.4738 206.533C82.898 206.395 84.3351 206.561 85.6911 207.016C87.7577 207.532 90.0825 207.016 91.9771 207.532C121.599 218.107 140.802 199.794 160.866 183.289C165.602 179.334 164.655 174.691 164.31 170.565C163.449 160.163 161.9 149.761 161.555 139.358C160.608 114.598 177.571 102.734 200.649 111.761C216.665 118.613 231.265 128.38 243.704 140.561C246.325 143.398 249.604 145.547 253.253 146.822C256.902 148.096 260.809 148.455 264.629 147.868C282.827 145.702 301.244 146.165 319.309 149.244C322.769 150.091 326.403 149.889 329.747 148.665C333.09 147.44 335.993 145.247 338.082 142.367C370.718 104.969 404.215 68.346 436.765 30.6052C443.223 23.2116 447.959 22.008 456.312 27.0804C468.817 35.4486 479.362 46.4167 487.226 59.2332ZM189.971 138.928C191.263 155.09 192.124 169.619 193.846 183.976C194.808 187.334 194.518 190.927 193.029 194.089C191.541 197.25 188.955 199.767 185.752 201.17C170.407 209.218 156.708 220.066 145.366 233.151C143.683 235.468 141.423 237.305 138.81 238.482C136.197 239.658 133.322 240.132 130.469 239.856C118.672 238.911 104.636 232.635 95.5078 238.825C86.38 245.014 84.7438 260.834 79.2328 272.096C78.5439 273.471 78.027 275.018 77.4242 276.48C62.6132 311.642 63.2161 315.167 92.1494 339.152C96.2026 341.998 99.593 345.683 102.09 349.956C104.586 354.229 106.13 358.989 106.616 363.911C107.824 386.622 115.568 408.502 128.919 426.928C149.672 452.719 152.857 481.52 156.043 511.609C156.818 518.4 157.766 525.107 158.799 531.812C159.229 534.821 158.799 538.775 163.363 539.034C177.314 539.807 191.693 547.63 204.954 541.441C216.235 536.54 208.658 523.301 211.413 514.274C211.888 513.136 212.464 512.042 213.135 511.007C220.799 514.188 228.376 517.713 236.127 520.55C249.819 525.622 268.59 526.482 276.082 536.197C283.573 545.912 281.421 565.169 283.745 580.127C284.521 585.371 282.884 592.421 292.357 591.906C306.307 591.132 320.774 602.135 334.293 591.046C337.393 588.466 336.445 583.222 335.929 579.01C334.81 570.412 334.292 562.332 332.57 554.164C330.332 543.332 331.882 538.604 345.229 536.97C416.615 527.944 471.381 494.673 495.492 423.834C515.556 364.6 499.453 311.298 462.77 261.521C456.135 272.364 446.137 280.75 434.295 285.405C422.452 290.059 409.412 290.729 397.154 287.313C372.612 282.326 347.641 278.715 322.84 275.104L233.371 260.317L306.909 176.927C288.753 174.921 270.404 175.471 252.401 178.561C248.938 179.435 245.292 179.255 241.932 178.046C238.571 176.835 235.65 174.649 233.544 171.769C221.517 157.859 206.665 146.664 189.971 138.928ZM288.568 240.459C332.829 247.422 373.474 254.386 414.29 259.974C430.479 262.21 441.931 247.852 439.003 229.884C437.54 221.288 438.315 217.418 447.098 213.379C476.72 199.537 482.059 169.017 459.412 145.204C453.47 138.928 452.007 135.231 457.861 127.236C464.283 118.513 467.746 107.971 467.746 97.1462C467.746 86.3211 464.283 75.7791 457.861 67.0566C453.47 61.2106 450.542 58.4595 443.739 65.9389C393.106 123.539 341.871 180.623 288.568 240.459ZM491.101 251.721C491.101 243.123 495.32 240.201 502.122 236.934C531.744 222.749 537.6 192.315 514.781 168.932C507.548 161.452 508.581 157.411 513.834 149.588C519.88 141.214 523.133 131.153 523.133 120.831C523.133 110.508 519.88 100.448 513.834 92.0743C511.767 88.807 510.045 83.4768 505.223 84.5085C502.904 85.1743 500.842 86.5238 499.306 88.38C497.77 90.236 496.83 92.5126 496.612 94.9114C496.023 103.628 494.581 112.266 492.306 120.702C490.606 124.692 489.891 129.031 490.221 133.355C490.551 137.679 491.915 141.86 494.201 145.547C500.711 157.374 503.284 170.961 501.55 184.344C499.816 197.727 493.865 210.213 484.557 219.998C475.946 229.713 475.171 235.387 484.557 243.382C486.982 245.962 489.172 248.752 491.101 251.721ZM563.003 431.399C566.706 434.064 570.754 434.321 573.164 427.015C575.576 419.707 574.714 415.236 567.136 412.228C565.923 411.462 564.552 410.983 563.126 410.825C561.699 410.667 560.256 410.834 558.904 411.314C557.553 411.794 556.328 412.575 555.323 413.597C554.317 414.619 553.557 415.855 553.1 417.213C549.656 425.381 555.683 428.132 563.003 431.399Z" fill="white"/>
<path d="M206.14 244.203C205.349 246.232 204.119 248.073 202.535 249.602C200.95 251.13 199.046 252.31 196.952 253.062C194.859 253.812 192.624 254.119 190.398 253.959C188.172 253.798 186.008 253.175 184.051 252.132C182.005 251.457 180.136 250.353 178.575 248.9C177.014 247.448 175.798 245.682 175.013 243.723C174.228 241.765 173.892 239.664 174.03 237.567C174.168 235.469 174.776 233.427 175.812 231.583C176.441 229.434 177.57 227.455 179.111 225.799C180.652 224.142 182.562 222.852 184.697 222.028C186.831 221.204 189.132 220.868 191.421 221.046C193.71 221.226 195.928 221.913 197.901 223.057C199.975 223.79 201.862 224.95 203.432 226.457C205.003 227.964 206.222 229.784 207.004 231.791C207.786 233.799 208.114 235.947 207.965 238.088C207.815 240.231 207.194 242.316 206.14 244.203Z" fill="white"/>
</svg>
