<svg width="2043" height="829" viewBox="0 0 2043 829" fill="none" xmlns="http://www.w3.org/2000/svg">
<path d="M374.308 74.4197C383.369 59.2013 392.429 65.4466 401.993 73.1276C413.051 81.5228 421.149 93.2101 425.118 106.501C429.086 119.791 428.719 133.997 424.07 147.066C422.987 149.826 422.559 152.798 422.821 155.75C423.083 158.702 424.028 161.553 425.58 164.079C431.934 175.687 434.017 189.149 431.469 202.13C428.921 215.11 421.902 226.791 411.629 235.147C406.733 241.078 403.198 248.007 401.273 255.449C399.347 262.89 399.078 270.662 400.483 278.218C413.848 311.804 415.269 348.949 404.51 383.455C402.137 390.992 404.51 394.007 410.694 395.658C419.396 397.812 426.874 406.57 437.373 401.401C435.575 396.879 431.62 396.807 428.6 395.299C416.663 389.054 412.42 379.507 416.879 368.452C417.704 365.841 419.05 363.424 420.834 361.345C422.619 359.267 424.806 357.57 427.264 356.356C429.723 355.143 432.401 354.437 435.139 354.283C437.877 354.129 440.619 354.529 443.198 355.459C457.58 360.053 464.339 369.816 459.593 381.732C455.782 391.71 459.593 394.797 467.719 397.453C472.178 398.889 478.578 399.391 474.91 407.79C471.243 416.189 466.065 411.02 462.326 409.082C460.974 408.098 459.44 407.391 457.813 407.002C456.185 406.614 454.496 406.551 452.845 406.818C451.193 407.085 449.611 407.677 448.189 408.558C446.768 409.44 445.535 410.594 444.564 411.954C436.798 420.281 427.018 416.907 417.742 413.03C398.11 404.775 397.895 404.775 386.461 422.004C374.664 439.942 359.439 455.382 341.658 467.441C323.878 479.5 303.89 487.941 282.838 492.281C273.706 494.435 270.11 496.804 271.261 507.356C274.137 532.696 258.029 548.13 232.501 545.761C219.054 544.469 205.679 542.028 192.232 540.521C185.903 539.875 183.315 537.147 182.811 530.615C181.948 519.344 179.719 508.146 178.712 496.875C178.742 494.499 177.939 492.187 176.442 490.338C174.945 488.49 172.849 487.222 170.515 486.754C165.337 485.031 162.964 486.754 159.656 490.774C155.723 495.232 150.706 498.604 145.089 500.565C139.472 502.526 133.444 503.011 127.584 501.972C114.137 500.608 100.762 498.239 87.3145 496.732C86.0128 496.798 84.7126 496.575 83.507 496.081C82.3014 495.586 81.2203 494.832 80.3408 493.872C79.4613 492.911 78.8053 491.769 78.4197 490.526C78.0341 489.283 77.9285 487.97 78.1103 486.682C78.1103 481.442 76.7439 476.273 76.2405 471.105C72.9327 440.74 70.6314 410.303 49.9932 384.962C46.2844 379.721 43.6008 373.827 42.0832 367.59C35.7552 345.122 29.4989 323.73 10.0832 307.075C-2.78875 296.021 -1.78178 277.5 4.4744 261.492C11.6654 242.325 20.3662 223.518 27.9887 204.064C28.2402 202.898 28.7356 201.798 29.4424 200.836C30.1491 199.875 31.0512 199.073 32.0898 198.483C33.1284 197.894 34.2801 197.53 35.4694 197.415C36.6587 197.3 37.8588 197.438 38.9912 197.818C40.717 198.249 42.6584 197.818 44.2405 198.249C68.9775 207.079 85.0135 191.788 101.769 178.006C105.724 174.704 104.933 170.827 104.645 167.382C103.926 158.696 102.632 150.01 102.344 141.324C101.553 120.649 115.719 110.743 134.991 118.28C148.366 124.002 160.558 132.157 170.946 142.328C173.135 144.697 175.873 146.492 178.92 147.556C181.967 148.62 185.23 148.92 188.42 148.43C203.617 146.621 218.997 147.008 234.083 149.579C236.972 150.286 240.007 150.117 242.799 149.095C245.591 148.072 248.015 146.241 249.76 143.836C277.014 112.609 304.987 82.0289 332.169 50.5153C337.562 44.3417 341.517 43.3367 348.492 47.5721C358.935 54.5596 367.741 63.7179 374.308 74.4197V74.4197ZM126.074 140.965C127.153 154.46 127.872 166.592 129.31 178.58C130.113 181.384 129.871 184.384 128.628 187.024C127.385 189.664 125.226 191.765 122.551 192.937C109.736 199.657 98.2968 208.715 88.8248 219.641C87.4197 221.576 85.5325 223.11 83.3503 224.092C81.1682 225.074 78.7671 225.47 76.3845 225.24C66.5328 224.451 54.8115 219.21 47.189 224.379C39.5665 229.547 38.2001 242.756 33.5979 252.16C33.0226 253.308 32.591 254.6 32.0876 255.821C19.7191 285.181 20.2226 288.124 44.3844 308.152C47.7692 310.528 50.6005 313.605 52.6854 317.173C54.7703 320.741 56.0597 324.716 56.4653 328.826C57.4739 347.789 63.9408 366.059 75.0902 381.445C92.4205 402.98 95.0809 427.029 97.7416 452.153C98.3888 457.824 99.1798 463.424 100.043 469.023C100.402 471.535 100.043 474.837 103.854 475.053C115.504 475.699 127.512 482.231 138.586 477.063C148.007 472.971 141.679 461.916 143.98 454.379C144.377 453.428 144.858 452.515 145.418 451.651C151.818 454.307 158.146 457.25 164.618 459.619C176.052 463.854 191.728 464.572 197.984 472.684C204.24 480.796 202.443 496.876 204.384 509.366C205.032 513.745 203.665 519.631 211.575 519.201C223.225 518.555 235.306 527.743 246.596 518.483C249.184 516.329 248.393 511.95 247.962 508.433C247.027 501.254 246.595 494.507 245.157 487.687C243.288 478.642 244.582 474.694 255.728 473.33C315.342 465.793 361.076 438.012 381.211 378.861C397.966 329.401 384.519 284.894 353.885 243.33C348.344 252.384 339.995 259.386 330.106 263.273C320.216 267.159 309.327 267.719 299.09 264.866C278.595 260.702 257.742 257.687 237.031 254.672L162.317 242.325L223.728 172.694C208.566 171.019 193.243 171.478 178.209 174.058C175.317 174.788 172.272 174.638 169.466 173.628C166.659 172.617 164.22 170.792 162.461 168.387C152.418 156.772 140.015 147.424 126.074 140.965V140.965ZM208.411 225.743C245.373 231.557 279.315 237.372 313.4 242.038C326.919 243.905 336.483 231.916 334.038 216.913C332.816 209.735 333.463 206.504 340.798 203.131C365.535 191.573 369.993 166.089 351.081 146.205C346.119 140.965 344.897 137.878 349.786 131.202C355.149 123.918 358.041 115.116 358.041 106.077C358.041 97.0381 355.149 88.2355 349.786 80.9522C346.119 76.0708 343.674 73.7737 337.993 80.019C295.71 128.115 252.924 175.78 208.411 225.743V225.743ZM377.544 235.147C377.544 227.968 381.067 225.528 386.748 222.8C411.485 210.955 416.375 185.543 397.319 166.018C391.279 159.772 392.141 156.398 396.528 149.866C401.577 142.874 404.294 134.473 404.294 125.854C404.294 117.234 401.577 108.834 396.528 101.842C394.802 99.1138 393.364 94.6631 389.337 95.5246C387.401 96.0805 385.679 97.2073 384.396 98.7573C383.113 100.307 382.328 102.208 382.146 104.211C381.654 111.489 380.45 118.702 378.55 125.746C377.131 129.078 376.534 132.701 376.809 136.311C377.085 139.922 378.224 143.413 380.133 146.492C385.569 156.367 387.718 167.712 386.27 178.887C384.822 190.062 379.852 200.488 372.079 208.658C364.888 216.77 364.241 221.508 372.079 228.184C374.104 230.338 375.933 232.668 377.544 235.147ZM437.589 385.178C440.681 387.403 444.061 387.618 446.074 381.517C448.088 375.415 447.368 371.682 441.04 369.17C440.027 368.531 438.882 368.131 437.691 367.999C436.5 367.867 435.295 368.006 434.166 368.407C433.037 368.808 432.014 369.46 431.175 370.313C430.335 371.167 429.7 372.199 429.319 373.333C426.443 380.153 431.476 382.45 437.589 385.178Z" fill="#E42D42"/>
<path d="M139.468 228.687C138.817 230.409 137.804 231.971 136.499 233.268C135.194 234.565 133.626 235.566 131.902 236.204C130.178 236.841 128.337 237.101 126.504 236.965C124.671 236.829 122.889 236.3 121.277 235.415C119.592 234.842 118.053 233.906 116.768 232.673C115.482 231.441 114.481 229.942 113.834 228.28C113.188 226.619 112.911 224.836 113.025 223.057C113.138 221.277 113.639 219.544 114.492 217.979C115.01 216.156 115.94 214.477 117.209 213.072C118.478 211.666 120.051 210.571 121.809 209.872C123.567 209.173 125.462 208.888 127.347 209.039C129.232 209.191 131.058 209.774 132.683 210.745C134.391 211.367 135.945 212.351 137.238 213.63C138.532 214.909 139.536 216.453 140.18 218.156C140.824 219.86 141.094 221.682 140.971 223.499C140.848 225.317 140.336 227.086 139.468 228.687V228.687Z" fill="#E42D42"/>
<path d="M1113.33 536.707C1109.32 541.939 1106.41 547.893 1104.77 554.227C1100.75 564.739 1093.87 582.044 1084 606H1084.44C1094.24 605.877 1104.02 605.04 1113.69 603.497C1115.72 603.494 1117.75 603.375 1119.76 603.14C1120.93 589.624 1121.74 581.687 1122.1 580.114C1122.47 578.54 1123.64 572.963 1125.03 567.027L1127.37 557.016L1130 528.055H1124.52C1120.2 527.554 1116.4 530.486 1113.33 536.707Z" fill="#E42D42"/>
<path d="M1820.02 567.248C1816.77 561.137 1813.44 558.009 1809.98 558.009C1806.91 557.923 1803.86 558.468 1801.02 559.609L1796.97 561.792C1795.6 562.789 1794.27 563.858 1793 564.993L1805.57 589H1805.93C1817.27 581.725 1822.18 576.633 1820.38 573.868C1821.17 573.432 1821.24 571.831 1820.38 569.139L1820.02 567.248Z" fill="#E42D42"/>
<path d="M1797.85 511.968L1787.24 491.861C1783.13 484.608 1777.26 478.509 1770.17 474.124C1763.36 473.657 1756.52 474.51 1750.02 476.638L1744 479.797C1757.24 500.382 1769.86 522.117 1781.86 545H1782.29C1786.75 542.434 1790.44 538.714 1792.98 534.229C1796.56 530.847 1798.71 526.223 1799 521.303C1798.29 518.24 1797.91 515.111 1797.85 511.968V511.968Z" fill="#E42D42"/>
<path d="M1877.09 436.325L1933.44 331C1783.9 433.665 1546.78 526.625 1333.06 458.181C979.279 344.804 891.624 409.509 891.624 409.509L828.807 570.049L782 692.269C928.811 614.695 1314.97 909.821 1682.75 715.563C1989.65 553.441 2016 485.501 2016 485.501C1966.32 510.233 1877.09 436.325 1877.09 436.325ZM1023.72 597.297L1022.93 599.957C1021.92 602.976 1020.49 608.728 1018.33 617.068L1014.1 631.015C1012.42 636.551 1011.27 642.231 1010.65 647.982C1010.15 649.708 1006.92 649.78 1001.03 648.414C997.548 647.994 994.111 647.247 990.766 646.185C988.397 645.466 987.822 643.022 989.043 638.995C989.375 637.994 989.758 637.01 990.191 636.048C990.981 632.453 993.278 624.473 997.37 612.035C998.806 607.434 1000.1 602.545 1001.17 597.656C991.69 596.004 982.086 595.138 972.459 595.068L958.747 593.271C957.67 598.807 954.655 609.806 949.558 626.27C947.982 630.778 945.861 635.076 943.241 639.067C942.626 639.206 941.989 639.206 941.374 639.067C929.816 635.473 924.432 632.597 925.149 630.224C926.229 627.057 927.068 623.812 927.662 620.519L934.841 599.813L937.21 589.101L940.369 579.323C952.214 542.873 958.747 522.814 959.824 519.148C966.525 497.435 970.88 482.769 972.89 475.148C973.68 472.488 980.069 472.991 990.981 476.442C993.924 477.305 995.073 478.815 994.427 480.828C993.781 482.841 993.063 484.71 992.776 484.566V486.939L980.643 526.481C975.857 541.291 971.071 556.101 966.285 570.911C975.081 572.545 983.981 573.554 992.919 573.931C1002.04 575.153 1007.28 575.944 1008.35 576.304C1010.75 570.566 1012.86 564.711 1014.67 558.761L1025.8 522.814C1027.81 514.139 1029.39 507.956 1030.54 504.265C1030.98 499.716 1031.72 495.201 1032.76 490.749C1033.7 487.802 1039.94 488.089 1050.57 491.468C1054.08 492.547 1054.95 495.926 1053.15 501.749L1047.55 526.193L1035.42 565.735C1032.33 573.14 1028.67 583.709 1023.72 597.297ZM1149.64 556.748C1149.64 559.48 1147.27 569.833 1143.46 587.807L1139.8 629.721C1139.3 635.113 1138.73 640.218 1138.01 645.106C1136.52 654.622 1135.73 664.233 1135.64 673.864C1135.64 679.041 1135.64 683.139 1135.21 686.374C1134.7 688.459 1128.03 688.531 1114.17 686.374C1112.38 685.942 1112.23 678.609 1113.74 664.302C1114.53 657.688 1115.18 652.008 1115.47 647.263C1115.47 646.041 1116.25 642.015 1117.4 635.329L1118.34 625.264C1116.61 625.264 1107.35 626.27 1090.7 628.571L1085.24 627.996C1084.6 627.996 1081.72 627.996 1076.55 627.996L1073.18 641.799C1070.6 650.355 1068.94 656.178 1068.16 659.773C1068.16 660.132 1068.16 661.57 1067.65 664.23L1067.29 667.609C1066.67 670.629 1061.36 670.988 1051.36 668.688C1047.7 667.897 1045.54 666.675 1044.75 664.949V664.015C1048.63 649.636 1052.43 635.257 1056.17 620.878C1064.06 599.31 1068.08 588.166 1068.51 586.872C1073.26 577.029 1077.31 566.867 1080.65 556.461C1082.93 552.272 1084.58 547.765 1085.53 543.088C1087.55 539.308 1089.26 535.364 1090.63 531.298C1091.63 530.866 1092.78 528.781 1094.29 525.187L1098.45 519.579C1103.76 511.599 1107.86 507.644 1110.87 507.86C1119.25 504.384 1128.55 503.827 1137.29 506.278C1140.75 506.925 1143.96 508.568 1146.51 511.006C1149.06 513.444 1150.84 516.573 1151.65 520.01C1152.36 523.022 1152.56 526.135 1152.22 529.213L1149.64 556.748ZM1262.13 584.14C1261.7 586.584 1260.41 587.519 1258.33 587.231L1244.33 585.147C1242.1 585.147 1241.03 582.774 1241.1 579.036C1241.39 574.546 1241.96 570.079 1242.82 565.663C1242.58 562.927 1241.36 560.371 1239.37 558.474L1229.75 554.663L1226.17 554.16C1217.69 555.886 1213.24 558.114 1212.74 560.846C1210.28 564.251 1208.34 568.008 1207 571.99C1203.79 577.103 1201.68 582.834 1200.82 588.813C1198.38 604.822 1195.85 621.214 1193.21 637.989C1193.01 644.09 1193.52 650.194 1194.72 656.178C1195.05 660.569 1195.62 664.938 1196.44 669.263C1198.24 674.008 1200.82 676.452 1204.27 677.243C1206.41 678.16 1208.47 679.241 1210.44 680.479L1219.42 681.916C1223.72 680.622 1226.12 678.394 1226.6 675.23C1227.11 674.057 1227.47 672.826 1227.67 671.564L1228.97 663.152L1230.62 654.525C1230.44 653.333 1230.44 652.122 1230.62 650.93C1230.9 650.022 1231.52 649.257 1232.34 648.789C1233.17 648.322 1234.14 648.187 1235.07 648.414L1248.28 650.355C1251.44 650.882 1252.8 652.607 1252.37 655.531L1250.57 665.381L1249.07 677.099C1247.85 682.808 1245.4 688.182 1241.89 692.844C1236.58 698.352 1229.62 701.985 1222.07 703.197C1222.07 703.772 1220.85 703.916 1218.77 703.628L1203.48 701.328C1190.27 695.648 1183.23 691.263 1182.44 688.099C1179.47 684.819 1177.18 680.984 1175.69 676.814C1174.2 672.645 1173.54 668.222 1173.76 663.799C1171.56 657.034 1170.87 649.867 1171.75 642.806C1170.81 642.806 1171.25 637.054 1172.83 626.054L1179.57 582.918C1181.65 573.428 1185.16 564.312 1189.98 555.886C1191.38 554.104 1192.32 552.005 1192.71 549.775C1196.21 545.482 1200.19 541.6 1204.56 538.2L1214.89 534.173C1218.21 532.995 1221.71 532.411 1225.23 532.448C1228.15 532.557 1231.05 532.87 1233.92 533.383C1242.56 535.303 1250.58 539.356 1257.25 545.173C1261.4 550.94 1264.02 557.669 1264.86 564.729L1262.13 584.14ZM1374.56 558.186C1372.13 565.861 1369 573.297 1365.22 580.402C1363.7 586.545 1361.28 592.432 1358.04 597.872C1355.19 604.522 1352 611.025 1348.5 617.355C1345.67 621.564 1343.26 626.044 1341.32 630.728L1331.27 650.211C1334.64 656.538 1339.38 664.59 1345.62 674.655C1347.1 678.736 1348.83 682.722 1350.79 686.589C1353.19 691.382 1355.58 696.631 1357.97 702.334C1361.08 709.73 1363.79 717.29 1366.08 724.981C1365.73 727.497 1360.84 729.87 1351.08 732.17H1348.85C1346.84 732.17 1343.04 724.981 1337.58 710.602C1332.52 696.542 1325.82 683.125 1317.63 670.629C1315.17 666.471 1312.44 662.483 1309.44 658.694H1308.94L1307.93 667.25C1308.27 669.393 1308.49 671.553 1308.58 673.72L1306.43 692.701C1306.74 698.023 1306.6 703.363 1306 708.661C1305.35 710.099 1303.77 710.674 1301.19 710.387L1286.83 708.733C1284.39 708.733 1283.53 705.498 1284.17 699.746C1284.23 698.644 1284.23 697.541 1284.17 696.439C1284.17 694.642 1284.89 687.74 1286.33 675.805C1285.89 671.132 1285.75 668.616 1285.75 668.616L1295.73 573.643C1295.47 564.661 1295.91 555.672 1297.02 546.755C1297.32 545.863 1297.92 545.105 1298.72 544.617C1299.53 544.13 1300.47 543.945 1301.4 544.095L1314.47 545.605C1317.77 545.605 1319.28 547.33 1319.06 549.775C1318.69 552.49 1318.52 555.23 1318.56 557.97C1318.05 559.558 1317.71 561.198 1317.55 562.859C1317.32 566.834 1317.32 570.819 1317.55 574.794C1314.9 600.173 1312.46 623.251 1310.37 643.956H1310.81C1311.57 641.073 1312.97 638.396 1314.9 636.12C1322.72 620.662 1326.67 612.682 1326.74 612.323C1329.74 608.375 1332.16 604.017 1333.92 599.382C1339.63 588.723 1344.57 577.672 1348.71 566.31C1349.36 566.31 1350.58 562.428 1352.3 554.376C1353.95 550.925 1355.82 549.271 1357.97 549.487C1370.03 553.01 1375.99 555.454 1375.85 557.108L1374.56 558.186ZM1543.41 692.629C1540.22 699.602 1534.88 705.371 1528.19 709.092C1528.19 709.668 1527.32 710.171 1525.24 710.602L1510.1 713.622C1495.74 712.687 1487.62 710.89 1485.83 708.158C1477.99 703.912 1472.12 696.765 1469.46 688.243C1465.18 682.57 1462.14 676.052 1460.56 669.119C1459.7 669.119 1458.19 663.727 1456.04 652.943L1447.71 609.806C1446.57 600.233 1446.84 590.545 1448.5 581.049C1449.22 578.921 1449.39 576.646 1449 574.434C1450.83 569.196 1453.24 564.18 1456.18 559.48L1464.65 552.291C1467.33 549.991 1470.42 548.234 1473.77 547.114C1476.55 546.276 1479.38 545.603 1482.24 545.101C1491.02 543.963 1499.94 545.102 1508.16 548.409C1516.7 555.598 1521.29 560.99 1521.87 564.225L1525.82 583.852C1526.25 586.225 1525.39 587.591 1523.3 587.95L1509.38 590.754C1507.15 591.186 1505.5 589.604 1504.35 586.081C1503.11 581.759 1502.13 577.365 1501.41 572.925C1501.41 571.127 1499.11 569.186 1495.67 567.101L1485.4 566.742L1481.81 567.461C1474.63 571.918 1471.04 575.513 1471.47 578.317C1470.27 582.326 1469.69 586.496 1469.75 590.682C1468.52 596.61 1468.52 602.728 1469.75 608.656C1472.84 624.545 1475.99 640.793 1479.15 657.544C1480.8 663.352 1483.21 668.914 1486.33 674.08C1488.08 678.129 1490.07 682.067 1492.29 685.871C1493.37 687.534 1494.89 688.869 1496.67 689.731C1498.45 690.593 1500.44 690.949 1502.41 690.759C1504.84 690.835 1507.24 691.173 1509.59 691.766L1518.49 690.04C1520.07 689.218 1521.36 687.943 1522.2 686.38C1523.05 684.818 1523.41 683.038 1523.23 681.269C1523.34 680.025 1523.34 678.775 1523.23 677.531L1521.65 669.119L1520.22 660.492C1519.7 659.373 1519.34 658.187 1519.14 656.969C1519.15 656.033 1519.5 655.132 1520.12 654.432C1520.74 653.732 1521.59 653.28 1522.51 653.159L1535.65 650.499C1536.25 650.29 1536.89 650.218 1537.52 650.29C1538.15 650.362 1538.76 650.575 1539.3 650.913C1539.83 651.251 1540.29 651.706 1540.63 652.244C1540.97 652.782 1541.18 653.39 1541.25 654.021L1542.83 663.871L1545.06 675.877C1545.71 681.515 1545.14 687.227 1543.41 692.629V692.629ZM1634.65 678.681C1634.65 678.681 1633.29 679.472 1630.34 680.263C1610.89 685.871 1601.13 688.459 1600.98 688.171L1600.19 688.818L1596.31 689.969C1593.95 690.687 1592.01 688.171 1590.43 682.779C1590.43 681.557 1587.34 674.008 1582.17 660.132C1577.01 640.296 1570.56 620.819 1562.86 601.826L1557.98 584.715C1557.98 583.565 1556.4 580.042 1554.03 574.003C1547.5 551.859 1543.62 538.919 1542.62 535.252C1542.04 533.095 1544.12 531.226 1549.08 529.644C1558.34 526.984 1563.44 526.553 1563.44 528.278C1564.8 533.239 1565.8 537.193 1566.31 540.213C1568.82 547.977 1571.26 555.886 1573.49 564.153C1574.55 567.652 1575.82 571.085 1577.29 574.434L1584.47 598.878C1585.26 598.878 1586.98 602.473 1589.57 610.238C1594.33 623.026 1598.33 636.086 1601.56 649.348L1606.08 663.727C1606.13 664.084 1606.26 664.424 1606.46 664.722C1606.66 665.021 1606.93 665.27 1607.24 665.45C1607.55 665.63 1607.9 665.737 1608.26 665.762C1608.62 665.788 1608.98 665.731 1609.31 665.596L1623.67 659.845C1627.62 657.832 1632.21 655.747 1637.52 653.59C1640.11 652.871 1642.05 654.525 1643.19 658.623C1645.13 664.374 1646.5 668.688 1647.29 671.635C1647.57 673.169 1643.29 675.518 1634.44 678.681H1634.65ZM1723.53 649.42L1709.82 655.387C1703.55 657.332 1696.97 658.04 1690.43 657.472C1685.9 656.628 1681.64 654.704 1678.01 651.865C1671.57 646.896 1666.29 640.562 1662.58 633.316L1648.72 602.257C1646.42 594.133 1644.99 589.388 1644.49 587.879C1640.88 578.77 1637.74 569.484 1635.08 560.055L1621.3 528.35C1621.25 528.263 1621.22 528.163 1621.22 528.062C1621.22 527.962 1621.25 527.862 1621.3 527.775L1620.58 527.2L1618 521.089C1616.85 518.141 1618.93 515.481 1624.31 513.108C1626.93 511.32 1629.78 509.893 1632.78 508.867C1635.37 507.86 1637.09 508.292 1637.88 510.017C1638.67 511.742 1639.03 512.749 1639.1 512.893C1639.53 514.187 1640.68 517.422 1642.4 522.527C1650.16 540.644 1654.94 551.788 1656.76 555.957C1658.2 559.696 1659.71 564.082 1661.36 569.258C1663.01 574.434 1664.44 578.676 1665.74 582.127C1667.34 586.278 1668.59 590.559 1669.47 594.924L1682.46 623.682C1688.13 630.871 1691.87 634.897 1693.66 634.61C1694.02 635.545 1697.32 635.185 1703.64 633.675L1711.97 630.081C1713.59 627.101 1714.45 623.768 1714.48 620.375C1714.96 614.719 1714.2 609.027 1712.26 603.695L1704.36 586.153C1703.14 582.378 1702.13 578.537 1701.34 574.65C1701.03 573.352 1700.62 572.079 1700.12 570.84C1699.55 569.33 1695.96 561.278 1689.5 546.827C1684.9 532.448 1681.96 523.389 1680.67 520.01C1675.5 507.788 1671.91 499.952 1669.97 496.357C1669.04 493.985 1673.27 490.462 1682.61 485.789H1683.68C1686.91 484.494 1689.07 484.926 1690 487.011L1698.11 505.488C1699.48 509.37 1701.42 514.69 1703.93 521.376C1706.44 528.062 1708.31 533.958 1709.67 538.99C1715.56 552.075 1719 559.912 1720.01 562.5C1722.2 568.182 1723.95 574.022 1725.25 579.97L1733.72 598.663C1734.65 602.451 1735.34 606.293 1735.8 610.166C1736.02 632.597 1731.93 645.682 1723.31 649.42H1723.53ZM1839.9 586.081C1834.38 595.6 1826.02 603.144 1815.99 607.65L1808.81 611.244C1800.77 615.414 1796.47 617.068 1795.89 615.989L1794.46 614.192L1771.84 571.055C1768.11 565.304 1765.96 561.925 1765.52 560.99C1750.87 532.778 1734.72 505.371 1717.14 478.887C1716.67 477.732 1716.46 476.487 1716.54 475.243C1716.61 473.999 1716.96 472.787 1717.57 471.697C1718 470.213 1718.71 468.823 1719.65 467.599L1737.96 458.037C1749.53 452.457 1762.55 450.623 1775.22 452.789C1781.92 455.189 1788.04 458.987 1793.16 463.933C1799.47 471.041 1804.89 478.887 1809.32 487.298L1813.48 495.279C1817.59 503.538 1820.03 512.529 1820.66 521.736C1820.08 526.662 1818.87 531.495 1817.07 536.115C1824.16 538.401 1830.33 542.913 1834.66 548.984C1837.39 553.277 1839.79 557.771 1841.84 562.428C1843.82 570.329 1843.06 578.669 1839.68 586.081H1839.9Z" fill="#E42D42"/>
<path d="M799.811 557.995C626.477 557.995 474.819 420.677 468 414.409L481.206 400C482.929 401.585 656.622 558.499 836.559 536.237L839 555.761C825.996 557.324 812.908 558.07 799.811 557.995V557.995Z" fill="#E42D42"/>
</svg>
