<svg width="350" height="325" viewBox="0 0 350 325" fill="none" xmlns="http://www.w3.org/2000/svg">
<path d="M150.299 14.634V72.884C150.299 80.784 143.895 87.185 135.995 87.185C107.809 87.185 92.477 116.094 90.352 173.151H135.995C143.895 173.151 150.299 179.558 150.299 187.455V310.447C150.299 318.343 143.895 324.745 135.995 324.745H14.301C6.398 324.745 0 318.338 0 310.447V187.455C0 160.103 2.754 135.003 8.183 112.844C13.751 90.123 22.298 70.257 33.579 53.796C45.187 36.879 59.707 23.604 76.739 14.356C93.886 5.05201 113.826 0.333008 136 0.333008C143.895 0.333008 150.299 6.73401 150.299 14.634ZM334.773 87.186C342.669 87.186 349.078 80.779 349.078 72.885V14.635C349.078 6.73501 342.67 0.334007 334.773 0.334007C312.608 0.334007 292.665 5.05401 275.524 14.357C258.489 23.605 243.961 36.88 232.351 53.797C221.074 70.258 212.527 90.125 206.958 112.851C201.532 135.017 198.778 160.117 198.778 187.456V310.448C198.778 318.344 205.184 324.746 213.082 324.746H334.772C342.668 324.746 349.071 318.339 349.071 310.448V187.455C349.071 179.559 342.669 173.151 334.772 173.151H289.78C291.873 116.095 306.981 87.186 334.773 87.186Z" fill="#266DD3"/>
</svg>
